<svg width="1027" height="915" viewBox="0 0 1027 915" fill="none" xmlns="http://www.w3.org/2000/svg">
<rect width="1027" height="915" fill="white"/>
<mask id="path-1-outside-1_621_1257" maskUnits="userSpaceOnUse" x="330.001" y="37" width="150" height="53" fill="black">
<rect fill="white" x="330.001" y="37" width="150" height="53"/>
<path d="M362.638 82L350.818 63.1H349.678L333.358 39.64H344.578L356.218 57.4H357.358L373.678 82H362.638ZM332.578 82L348.238 59.32L355.498 63.4L343.318 82H332.578ZM357.718 62.02L350.458 57.94L362.218 39.64H372.958L357.718 62.02ZM400.815 88.48C398.375 86.68 396.335 84.48 394.695 81.88C393.095 79.24 391.875 76.38 391.035 73.3C390.235 70.18 389.835 66.98 389.835 63.7C389.835 60.42 390.235 57.24 391.035 54.16C391.875 51.04 393.095 48.18 394.695 45.58C396.335 42.94 398.375 40.72 400.815 38.92L402.015 40.12C398.535 42.8 395.915 46.2 394.155 50.32C392.435 54.44 391.575 58.9 391.575 63.7C391.575 68.5 392.435 72.96 394.155 77.08C395.915 81.16 398.535 84.56 402.015 87.28L400.815 88.48ZM416.503 82V41.44H418.363V82H416.503ZM407.503 43.12V41.44H417.763V43.12H407.503ZM443.941 82.6C441.021 82.6 438.341 81.74 435.901 80.02C433.501 78.3 431.581 75.88 430.141 72.76C428.701 69.6 427.981 65.9 427.981 61.66C427.981 57.38 428.681 53.7 430.081 50.62C431.521 47.5 433.441 45.1 435.841 43.42C438.241 41.7 440.901 40.84 443.821 40.84C446.781 40.84 449.461 41.7 451.861 43.42C454.261 45.1 456.161 47.5 457.561 50.62C459.001 53.74 459.721 57.44 459.721 61.72C459.721 65.96 459.001 69.66 457.561 72.82C456.161 75.94 454.261 78.36 451.861 80.08C449.501 81.76 446.861 82.6 443.941 82.6ZM443.821 80.8C446.461 80.8 448.821 80.04 450.901 78.52C453.021 76.96 454.701 74.76 455.941 71.92C457.181 69.04 457.801 65.62 457.801 61.66C457.801 57.74 457.181 54.36 455.941 51.52C454.701 48.68 453.021 46.5 450.901 44.98C448.821 43.42 446.461 42.64 443.821 42.64C441.221 42.64 438.861 43.42 436.741 44.98C434.661 46.5 433.001 48.68 431.761 51.52C430.521 54.36 429.901 57.74 429.901 61.66C429.901 65.62 430.521 69.04 431.761 71.92C433.001 74.76 434.661 76.96 436.741 78.52C438.861 80.04 441.221 80.8 443.821 80.8ZM467.592 88.48L466.392 87.28C469.872 84.56 472.472 81.16 474.192 77.08C475.952 72.96 476.832 68.5 476.832 63.7C476.832 58.9 475.952 54.44 474.192 50.32C472.472 46.2 469.872 42.8 466.392 40.12L467.592 38.92C470.032 40.72 472.052 42.94 473.652 45.58C475.292 48.18 476.512 51.04 477.312 54.16C478.152 57.24 478.572 60.42 478.572 63.7C478.572 66.98 478.152 70.18 477.312 73.3C476.512 76.38 475.292 79.24 473.652 81.88C472.052 84.48 470.032 86.68 467.592 88.48Z"/>
</mask>
<path d="M362.638 82L350.818 63.1H349.678L333.358 39.64H344.578L356.218 57.4H357.358L373.678 82H362.638ZM332.578 82L348.238 59.32L355.498 63.4L343.318 82H332.578ZM357.718 62.02L350.458 57.94L362.218 39.64H372.958L357.718 62.02ZM400.815 88.48C398.375 86.68 396.335 84.48 394.695 81.88C393.095 79.24 391.875 76.38 391.035 73.3C390.235 70.18 389.835 66.98 389.835 63.7C389.835 60.42 390.235 57.24 391.035 54.16C391.875 51.04 393.095 48.18 394.695 45.58C396.335 42.94 398.375 40.72 400.815 38.92L402.015 40.12C398.535 42.8 395.915 46.2 394.155 50.32C392.435 54.44 391.575 58.9 391.575 63.7C391.575 68.5 392.435 72.96 394.155 77.08C395.915 81.16 398.535 84.56 402.015 87.28L400.815 88.48ZM416.503 82V41.44H418.363V82H416.503ZM407.503 43.12V41.44H417.763V43.12H407.503ZM443.941 82.6C441.021 82.6 438.341 81.74 435.901 80.02C433.501 78.3 431.581 75.88 430.141 72.76C428.701 69.6 427.981 65.9 427.981 61.66C427.981 57.38 428.681 53.7 430.081 50.62C431.521 47.5 433.441 45.1 435.841 43.42C438.241 41.7 440.901 40.84 443.821 40.84C446.781 40.84 449.461 41.7 451.861 43.42C454.261 45.1 456.161 47.5 457.561 50.62C459.001 53.74 459.721 57.44 459.721 61.72C459.721 65.96 459.001 69.66 457.561 72.82C456.161 75.94 454.261 78.36 451.861 80.08C449.501 81.76 446.861 82.6 443.941 82.6ZM443.821 80.8C446.461 80.8 448.821 80.04 450.901 78.52C453.021 76.96 454.701 74.76 455.941 71.92C457.181 69.04 457.801 65.62 457.801 61.66C457.801 57.74 457.181 54.36 455.941 51.52C454.701 48.68 453.021 46.5 450.901 44.98C448.821 43.42 446.461 42.64 443.821 42.64C441.221 42.64 438.861 43.42 436.741 44.98C434.661 46.5 433.001 48.68 431.761 51.52C430.521 54.36 429.901 57.74 429.901 61.66C429.901 65.62 430.521 69.04 431.761 71.92C433.001 74.76 434.661 76.96 436.741 78.52C438.861 80.04 441.221 80.8 443.821 80.8ZM467.592 88.48L466.392 87.28C469.872 84.56 472.472 81.16 474.192 77.08C475.952 72.96 476.832 68.5 476.832 63.7C476.832 58.9 475.952 54.44 474.192 50.32C472.472 46.2 469.872 42.8 466.392 40.12L467.592 38.92C470.032 40.72 472.052 42.94 473.652 45.58C475.292 48.18 476.512 51.04 477.312 54.16C478.152 57.24 478.572 60.42 478.572 63.7C478.572 66.98 478.152 70.18 477.312 73.3C476.512 76.38 475.292 79.24 473.652 81.88C472.052 84.48 470.032 86.68 467.592 88.48Z" fill="#8BE9FD"/>
<path d="M362.638 82L361.791 82.5302L362.084 83H362.638V82ZM350.818 63.1L351.666 62.5698L351.373 62.1H350.818V63.1ZM349.678 63.1L348.858 63.6711L349.156 64.1H349.678V63.1ZM333.358 39.64V38.64H331.445L332.538 40.2111L333.358 39.64ZM344.578 39.64L345.415 39.0918L345.119 38.64H344.578V39.64ZM356.218 57.4L355.382 57.9482L355.678 58.4H356.218V57.4ZM357.358 57.4L358.192 56.8472L357.895 56.4H357.358V57.4ZM373.678 82V83H375.542L374.512 81.4472L373.678 82ZM332.578 82L331.756 81.4318L330.673 83H332.578V82ZM348.238 59.32L348.728 58.4482L347.934 58.0016L347.416 58.7518L348.238 59.32ZM355.498 63.4L356.335 63.9478L356.921 63.0525L355.988 62.5282L355.498 63.4ZM343.318 82V83H343.859L344.155 82.5478L343.318 82ZM357.718 62.02L357.229 62.8918L358.029 63.3413L358.545 62.5829L357.718 62.02ZM350.458 57.94L349.617 57.3994L349.044 58.292L349.969 58.8118L350.458 57.94ZM362.218 39.64V38.64H361.672L361.377 39.0994L362.218 39.64ZM372.958 39.64L373.785 40.2029L374.849 38.64H372.958V39.64ZM362.638 82L363.486 81.4698L351.666 62.5698L350.818 63.1L349.971 63.6302L361.791 82.5302L362.638 82ZM350.818 63.1V62.1H349.678V63.1V64.1H350.818V63.1ZM349.678 63.1L350.499 62.5289L334.179 39.0689L333.358 39.64L332.538 40.2111L348.858 63.6711L349.678 63.1ZM333.358 39.64V40.64H344.578V39.64V38.64H333.358V39.64ZM344.578 39.64L343.742 40.1882L355.382 57.9482L356.218 57.4L357.055 56.8518L345.415 39.0918L344.578 39.64ZM356.218 57.4V58.4H357.358V57.4V56.4H356.218V57.4ZM357.358 57.4L356.525 57.9528L372.845 82.5528L373.678 82L374.512 81.4472L358.192 56.8472L357.358 57.4ZM373.678 82V81H362.638V82V83H373.678V82ZM332.578 82L333.401 82.5682L349.061 59.8882L348.238 59.32L347.416 58.7518L331.756 81.4318L332.578 82ZM348.238 59.32L347.749 60.1918L355.009 64.2718L355.498 63.4L355.988 62.5282L348.728 58.4482L348.238 59.32ZM355.498 63.4L354.662 62.8522L342.482 81.4522L343.318 82L344.155 82.5478L356.335 63.9478L355.498 63.4ZM343.318 82V81H332.578V82V83H343.318V82ZM357.718 62.02L358.208 61.1482L350.948 57.0682L350.458 57.94L349.969 58.8118L357.229 62.8918L357.718 62.02ZM350.458 57.94L351.3 58.4806L363.06 40.1806L362.218 39.64L361.377 39.0994L349.617 57.3994L350.458 57.94ZM362.218 39.64V40.64H372.958V39.64V38.64H362.218V39.64ZM372.958 39.64L372.132 39.0771L356.892 61.4571L357.718 62.02L358.545 62.5829L373.785 40.2029L372.958 39.64ZM400.815 88.48L400.221 89.2847L400.914 89.7955L401.522 89.1871L400.815 88.48ZM394.695 81.88L393.84 82.3983L393.844 82.4059L393.849 82.4135L394.695 81.88ZM391.035 73.3L390.066 73.5484L390.068 73.5558L390.07 73.5631L391.035 73.3ZM391.035 54.16L390.069 53.9L390.067 53.9086L391.035 54.16ZM394.695 45.58L393.845 45.0523L393.843 45.0559L394.695 45.58ZM400.815 38.92L401.522 38.2129L400.914 37.6045L400.221 38.1153L400.815 38.92ZM402.015 40.12L402.625 40.9123L403.527 40.2178L402.722 39.4129L402.015 40.12ZM394.155 50.32L393.235 49.9271L393.232 49.9347L394.155 50.32ZM394.155 77.08L393.232 77.4653L393.237 77.4761L394.155 77.08ZM402.015 87.28L402.722 87.9871L403.521 87.188L402.631 86.4921L402.015 87.28ZM400.815 88.48L401.409 87.6753C399.07 85.9502 397.115 83.8427 395.541 81.3465L394.695 81.88L393.849 82.4135C395.555 85.1173 397.68 87.4098 400.221 89.2847L400.815 88.48ZM394.695 81.88L395.55 81.3617C394 78.8039 392.816 76.0302 392 73.0369L391.035 73.3L390.07 73.5631C390.934 76.7298 392.19 79.6761 393.84 82.3983L394.695 81.88ZM391.035 73.3L392.004 73.0516C391.225 70.0143 390.835 66.8978 390.835 63.7H389.835H388.835C388.835 67.0622 389.245 70.3457 390.066 73.5484L391.035 73.3ZM389.835 63.7H390.835C390.835 60.5022 391.225 57.4068 392.003 54.4114L391.035 54.16L390.067 53.9086C389.245 57.0732 388.835 60.3378 388.835 63.7H389.835ZM391.035 54.16L392 54.42C392.817 51.3876 394 48.6173 395.547 46.1041L394.695 45.58L393.843 45.0559C392.19 47.7427 390.933 50.6924 390.069 53.9L391.035 54.16ZM394.695 45.58L395.544 46.1077C397.119 43.5727 399.073 41.4475 401.409 39.7247L400.815 38.92L400.221 38.1153C397.677 39.9925 395.551 42.3073 393.845 45.0523L394.695 45.58ZM400.815 38.92L400.108 39.6271L401.308 40.8271L402.015 40.12L402.722 39.4129L401.522 38.2129L400.815 38.92ZM402.015 40.12L401.405 39.3277C397.786 42.1143 395.061 45.653 393.235 49.9272L394.155 50.32L395.074 50.7128C396.769 46.747 399.283 43.4857 402.625 40.9123L402.015 40.12ZM394.155 50.32L393.232 49.9347C391.457 54.1857 390.575 58.7778 390.575 63.7H391.575H392.575C392.575 59.0222 393.412 54.6943 395.078 50.7053L394.155 50.32ZM391.575 63.7H390.575C390.575 68.6222 391.457 73.2143 393.232 77.4653L394.155 77.08L395.078 76.6947C393.412 72.7057 392.575 68.3778 392.575 63.7H391.575ZM394.155 77.08L393.237 77.4761C395.063 81.709 397.786 85.244 401.399 88.0679L402.015 87.28L402.631 86.4921C399.284 83.876 396.767 80.611 395.073 76.6839L394.155 77.08ZM402.015 87.28L401.308 86.5729L400.108 87.7729L400.815 88.48L401.522 89.1871L402.722 87.9871L402.015 87.28ZM416.503 82H415.503V83H416.503V82ZM416.503 41.44V40.44H415.503V41.44H416.503ZM418.363 41.44H419.363V40.44H418.363V41.44ZM418.363 82V83H419.363V82H418.363ZM407.503 43.12H406.503V44.12H407.503V43.12ZM407.503 41.44V40.44H406.503V41.44H407.503ZM417.763 41.44H418.763V40.44H417.763V41.44ZM417.763 43.12V44.12H418.763V43.12H417.763ZM416.503 82H417.503V41.44H416.503H415.503V82H416.503ZM416.503 41.44V42.44H418.363V41.44V40.44H416.503V41.44ZM418.363 41.44H417.363V82H418.363H419.363V41.44H418.363ZM418.363 82V81H416.503V82V83H418.363V82ZM407.503 43.12H408.503V41.44H407.503H406.503V43.12H407.503ZM407.503 41.44V42.44H417.763V41.44V40.44H407.503V41.44ZM417.763 41.44H416.763V43.12H417.763H418.763V41.44H417.763ZM417.763 43.12V42.12H407.503V43.12V44.12H417.763V43.12ZM435.901 80.02L435.318 80.8328L435.325 80.8373L435.901 80.02ZM430.141 72.76L429.231 73.1747L429.233 73.1791L430.141 72.76ZM430.081 50.62L429.173 50.2009L429.17 50.2062L430.081 50.62ZM435.841 43.42L436.414 44.2393L436.423 44.2328L435.841 43.42ZM451.861 43.42L451.278 44.2329L451.287 44.2392L451.861 43.42ZM457.561 50.62L456.648 51.0294L456.653 51.0391L457.561 50.62ZM457.561 72.82L456.651 72.4053L456.648 72.4106L457.561 72.82ZM451.861 80.08L452.441 80.8947L452.443 80.8928L451.861 80.08ZM450.901 78.52L451.491 79.3274L451.493 79.3254L450.901 78.52ZM455.941 71.92L456.857 72.3201L456.859 72.3155L455.941 71.92ZM455.941 51.52L455.024 51.9201V51.9201L455.941 51.52ZM450.901 44.98L450.301 45.78L450.309 45.7864L450.318 45.7927L450.901 44.98ZM436.741 44.98L437.331 45.7874L437.333 45.7854L436.741 44.98ZM431.761 51.52L432.677 51.9201V51.9201L431.761 51.52ZM431.761 71.92L430.842 72.3155L430.844 72.3201L431.761 71.92ZM436.741 78.52L436.141 79.32L436.149 79.3264L436.158 79.3327L436.741 78.52ZM443.941 82.6V81.6C441.232 81.6 438.752 80.8066 436.477 79.2027L435.901 80.02L435.325 80.8373C437.929 82.6734 440.81 83.6 443.941 83.6V82.6ZM435.901 80.02L436.483 79.2072C434.246 77.6035 432.428 75.3297 431.049 72.3409L430.141 72.76L429.233 73.1791C430.733 76.4303 432.756 78.9965 435.318 80.8328L435.901 80.02ZM430.141 72.76L431.051 72.3453C429.682 69.341 428.981 65.7879 428.981 61.66H427.981H426.981C426.981 66.0121 427.72 69.859 429.231 73.1747L430.141 72.76ZM427.981 61.66H428.981C428.981 57.4862 429.664 53.9542 430.991 51.0338L430.081 50.62L429.17 50.2062C427.698 53.4458 426.981 57.2738 426.981 61.66H427.981ZM430.081 50.62L430.989 51.0391C432.368 48.0517 434.183 45.8014 436.414 44.2392L435.841 43.42L435.267 42.6008C432.699 44.3986 430.674 46.9483 429.173 50.2009L430.081 50.62ZM435.841 43.42L436.423 44.2328C438.656 42.6331 441.112 41.84 443.821 41.84V40.84V39.84C440.689 39.84 437.826 40.7669 435.258 42.6072L435.841 43.42ZM443.821 40.84V41.84C446.572 41.84 449.049 42.6349 451.278 44.2328L451.861 43.42L452.443 42.6072C449.873 40.7651 446.989 39.84 443.821 39.84V40.84ZM451.861 43.42L451.287 44.2392C453.516 45.7995 455.31 48.0462 456.648 51.0294L457.561 50.62L458.473 50.2106C457.012 46.9538 455.005 44.4005 452.434 42.6008L451.861 43.42ZM457.561 50.62L456.653 51.0391C458.019 53.9995 458.721 57.5501 458.721 61.72H459.721H460.721C460.721 57.3299 459.982 53.4805 458.469 50.2009L457.561 50.62ZM459.721 61.72H458.721C458.721 65.8479 458.02 69.401 456.651 72.4053L457.561 72.82L458.471 73.2347C459.982 69.919 460.721 66.0721 460.721 61.72H459.721ZM457.561 72.82L456.648 72.4106C455.309 75.3952 453.513 77.6655 451.278 79.2672L451.861 80.08L452.443 80.8928C455.008 79.0545 457.012 76.4848 458.473 73.2294L457.561 72.82ZM451.861 80.08L451.281 79.2653C449.092 80.8238 446.655 81.6 443.941 81.6V82.6V83.6C447.067 83.6 449.91 82.6962 452.441 80.8947L451.861 80.08ZM443.821 80.8V81.8C446.667 81.8 449.235 80.9758 451.491 79.3274L450.901 78.52L450.311 77.7126C448.407 79.1042 446.254 79.8 443.821 79.8V80.8ZM450.901 78.52L451.493 79.3254C453.779 77.644 455.559 75.2926 456.857 72.3201L455.941 71.92L455.024 71.5199C453.842 74.2274 452.263 76.276 450.308 77.7146L450.901 78.52ZM455.941 71.92L456.859 72.3155C458.165 69.2824 458.801 65.7215 458.801 61.66H457.801H456.801C456.801 65.5185 456.196 68.7976 455.022 71.5245L455.941 71.92ZM457.801 61.66H458.801C458.801 57.6375 458.165 54.1148 456.857 51.1199L455.941 51.52L455.024 51.9201C456.197 54.6052 456.801 57.8425 456.801 61.66H457.801ZM455.941 51.52L456.857 51.1199C455.559 48.146 453.775 45.8105 451.483 44.1673L450.901 44.98L450.318 45.7927C452.266 47.1895 453.843 49.214 455.024 51.9201L455.941 51.52ZM450.901 44.98L451.501 44.18C449.245 42.488 446.674 41.64 443.821 41.64V42.64V43.64C446.248 43.64 448.397 44.352 450.301 45.78L450.901 44.98ZM443.821 42.64V41.64C441.005 41.64 438.438 42.4899 436.148 44.1746L436.741 44.98L437.333 45.7854C439.284 44.3501 441.437 43.64 443.821 43.64V42.64ZM436.741 44.98L436.151 44.1726C433.901 45.8164 432.141 48.1506 430.844 51.1199L431.761 51.52L432.677 51.9201C433.861 49.2094 435.42 47.1836 437.331 45.7874L436.741 44.98ZM431.761 51.52L430.844 51.1199C429.537 54.1148 428.901 57.6375 428.901 61.66H429.901H430.901C430.901 57.8425 431.505 54.6052 432.677 51.9201L431.761 51.52ZM429.901 61.66H428.901C428.901 65.7215 429.536 69.2824 430.842 72.3155L431.761 71.92L432.679 71.5245C431.505 68.7976 430.901 65.5185 430.901 61.66H429.901ZM431.761 71.92L430.844 72.3201C432.14 75.2881 433.898 77.638 436.141 79.32L436.741 78.52L437.341 77.72C435.423 76.282 433.861 74.2319 432.677 71.5199L431.761 71.92ZM436.741 78.52L436.158 79.3327C438.447 80.9741 441.011 81.8 443.821 81.8V80.8V79.8C441.431 79.8 439.274 79.1059 437.323 77.7073L436.741 78.52ZM467.592 88.48L466.884 89.1871L467.493 89.7955L468.185 89.2847L467.592 88.48ZM466.392 87.28L465.776 86.4921L464.885 87.188L465.684 87.9871L466.392 87.28ZM474.192 77.08L473.272 76.6872L473.27 76.6915L474.192 77.08ZM474.192 50.32L473.269 50.7053L473.272 50.7128L474.192 50.32ZM466.392 40.12L465.684 39.4129L464.88 40.2178L465.781 40.9123L466.392 40.12ZM467.592 38.92L468.185 38.1153L467.493 37.6045L466.884 38.2129L467.592 38.92ZM473.652 45.58L472.796 46.0983L472.801 46.1059L472.806 46.1135L473.652 45.58ZM477.312 54.16L476.343 54.4084L476.345 54.4158L476.347 54.4231L477.312 54.16ZM477.312 73.3L476.346 73.04L476.344 73.0486L477.312 73.3ZM473.652 81.88L472.802 81.3523L472.8 81.3559L473.652 81.88ZM467.592 88.48L468.299 87.7729L467.099 86.5729L466.392 87.28L465.684 87.9871L466.884 89.1871L467.592 88.48ZM466.392 87.28L467.007 88.0679C470.622 85.2427 473.327 81.7051 475.113 77.4685L474.192 77.08L473.27 76.6915C471.616 80.6149 469.121 83.8773 465.776 86.4921L466.392 87.28ZM474.192 77.08L475.111 77.4728C476.928 73.22 477.832 68.6253 477.832 63.7H476.832H475.832C475.832 68.3747 474.975 72.7 473.272 76.6872L474.192 77.08ZM476.832 63.7H477.832C477.832 58.7747 476.928 54.18 475.111 49.9272L474.192 50.32L473.272 50.7128C474.975 54.7 475.832 59.0253 475.832 63.7H476.832ZM474.192 50.32L475.114 49.9347C473.329 45.6569 470.622 42.1157 467.002 39.3277L466.392 40.12L465.781 40.9123C469.121 43.4843 471.615 46.743 473.269 50.7053L474.192 50.32ZM466.392 40.12L467.099 40.8271L468.299 39.6271L467.592 38.92L466.884 38.2129L465.684 39.4129L466.392 40.12ZM467.592 38.92L466.998 39.7247C469.331 41.4458 471.263 43.5679 472.796 46.0983L473.652 45.58L474.507 45.0617C472.84 42.3121 470.732 39.9942 468.185 38.1153L467.592 38.92ZM473.652 45.58L472.806 46.1135C474.388 48.6213 475.568 51.3844 476.343 54.4084L477.312 54.16L478.28 53.9116C477.456 50.6956 476.196 47.7387 474.497 45.0465L473.652 45.58ZM477.312 54.16L476.347 54.4231C477.163 57.415 477.572 60.5064 477.572 63.7H478.572H479.572C479.572 60.3336 479.14 57.065 478.276 53.8969L477.312 54.16ZM478.572 63.7H477.572C477.572 66.8936 477.163 70.0061 476.346 73.04L477.312 73.3L478.277 73.56C479.14 70.3539 479.572 67.0664 479.572 63.7H478.572ZM477.312 73.3L476.344 73.0486C475.568 76.0334 474.388 78.8 472.802 81.3523L473.652 81.88L474.501 82.4077C476.195 79.68 477.455 76.7266 478.279 73.5514L477.312 73.3ZM473.652 81.88L472.8 81.3559C471.267 83.8475 469.334 85.9519 466.998 87.6753L467.592 88.48L468.185 89.2847C470.729 87.4081 472.837 85.1125 474.503 82.4041L473.652 81.88Z" fill="#8BE9FD" mask="url(#path-1-outside-1_621_1257)"/>
<mask id="path-3-outside-2_621_1257" maskUnits="userSpaceOnUse" x="842" y="491" width="146" height="53" fill="black">
<rect fill="white" x="842" y="491" width="146" height="53"/>
<path d="M860.477 520.22L844.157 493.64H855.077L867.617 515.12H860.597L873.137 493.64H883.817L867.377 520.22H860.477ZM859.337 536V515.9H868.757V536H859.337ZM909.115 542.48C906.675 540.68 904.635 538.48 902.995 535.88C901.395 533.24 900.175 530.38 899.335 527.3C898.535 524.18 898.135 520.98 898.135 517.7C898.135 514.42 898.535 511.24 899.335 508.16C900.175 505.04 901.395 502.18 902.995 499.58C904.635 496.94 906.675 494.72 909.115 492.92L910.315 494.12C906.835 496.8 904.215 500.2 902.455 504.32C900.735 508.44 899.875 512.9 899.875 517.7C899.875 522.5 900.735 526.96 902.455 531.08C904.215 535.16 906.835 538.56 910.315 541.28L909.115 542.48ZM924.804 536V495.44H926.664V536H924.804ZM915.804 497.12V495.44H926.064V497.12H915.804ZM952.241 536.6C949.321 536.6 946.641 535.74 944.201 534.02C941.801 532.3 939.881 529.88 938.441 526.76C937.001 523.6 936.281 519.9 936.281 515.66C936.281 511.38 936.981 507.7 938.381 504.62C939.821 501.5 941.741 499.1 944.141 497.42C946.541 495.7 949.201 494.84 952.121 494.84C955.081 494.84 957.761 495.7 960.161 497.42C962.561 499.1 964.461 501.5 965.861 504.62C967.301 507.74 968.021 511.44 968.021 515.72C968.021 519.96 967.301 523.66 965.861 526.82C964.461 529.94 962.561 532.36 960.161 534.08C957.801 535.76 955.161 536.6 952.241 536.6ZM952.121 534.8C954.761 534.8 957.121 534.04 959.201 532.52C961.321 530.96 963.001 528.76 964.241 525.92C965.481 523.04 966.101 519.62 966.101 515.66C966.101 511.74 965.481 508.36 964.241 505.52C963.001 502.68 961.321 500.5 959.201 498.98C957.121 497.42 954.761 496.64 952.121 496.64C949.521 496.64 947.161 497.42 945.041 498.98C942.961 500.5 941.301 502.68 940.061 505.52C938.821 508.36 938.201 511.74 938.201 515.66C938.201 519.62 938.821 523.04 940.061 525.92C941.301 528.76 942.961 530.96 945.041 532.52C947.161 534.04 949.521 534.8 952.121 534.8ZM975.892 542.48L974.692 541.28C978.172 538.56 980.772 535.16 982.492 531.08C984.252 526.96 985.132 522.5 985.132 517.7C985.132 512.9 984.252 508.44 982.492 504.32C980.772 500.2 978.172 496.8 974.692 494.12L975.892 492.92C978.332 494.72 980.352 496.94 981.952 499.58C983.592 502.18 984.812 505.04 985.612 508.16C986.452 511.24 986.872 514.42 986.872 517.7C986.872 520.98 986.452 524.18 985.612 527.3C984.812 530.38 983.592 533.24 981.952 535.88C980.352 538.48 978.332 540.68 975.892 542.48Z"/>
</mask>
<path d="M860.477 520.22L844.157 493.64H855.077L867.617 515.12H860.597L873.137 493.64H883.817L867.377 520.22H860.477ZM859.337 536V515.9H868.757V536H859.337ZM909.115 542.48C906.675 540.68 904.635 538.48 902.995 535.88C901.395 533.24 900.175 530.38 899.335 527.3C898.535 524.18 898.135 520.98 898.135 517.7C898.135 514.42 898.535 511.24 899.335 508.16C900.175 505.04 901.395 502.18 902.995 499.58C904.635 496.94 906.675 494.72 909.115 492.92L910.315 494.12C906.835 496.8 904.215 500.2 902.455 504.32C900.735 508.44 899.875 512.9 899.875 517.7C899.875 522.5 900.735 526.96 902.455 531.08C904.215 535.16 906.835 538.56 910.315 541.28L909.115 542.48ZM924.804 536V495.44H926.664V536H924.804ZM915.804 497.12V495.44H926.064V497.12H915.804ZM952.241 536.6C949.321 536.6 946.641 535.74 944.201 534.02C941.801 532.3 939.881 529.88 938.441 526.76C937.001 523.6 936.281 519.9 936.281 515.66C936.281 511.38 936.981 507.7 938.381 504.62C939.821 501.5 941.741 499.1 944.141 497.42C946.541 495.7 949.201 494.84 952.121 494.84C955.081 494.84 957.761 495.7 960.161 497.42C962.561 499.1 964.461 501.5 965.861 504.62C967.301 507.74 968.021 511.44 968.021 515.72C968.021 519.96 967.301 523.66 965.861 526.82C964.461 529.94 962.561 532.36 960.161 534.08C957.801 535.76 955.161 536.6 952.241 536.6ZM952.121 534.8C954.761 534.8 957.121 534.04 959.201 532.52C961.321 530.96 963.001 528.76 964.241 525.92C965.481 523.04 966.101 519.62 966.101 515.66C966.101 511.74 965.481 508.36 964.241 505.52C963.001 502.68 961.321 500.5 959.201 498.98C957.121 497.42 954.761 496.64 952.121 496.64C949.521 496.64 947.161 497.42 945.041 498.98C942.961 500.5 941.301 502.68 940.061 505.52C938.821 508.36 938.201 511.74 938.201 515.66C938.201 519.62 938.821 523.04 940.061 525.92C941.301 528.76 942.961 530.96 945.041 532.52C947.161 534.04 949.521 534.8 952.121 534.8ZM975.892 542.48L974.692 541.28C978.172 538.56 980.772 535.16 982.492 531.08C984.252 526.96 985.132 522.5 985.132 517.7C985.132 512.9 984.252 508.44 982.492 504.32C980.772 500.2 978.172 496.8 974.692 494.12L975.892 492.92C978.332 494.72 980.352 496.94 981.952 499.58C983.592 502.18 984.812 505.04 985.612 508.16C986.452 511.24 986.872 514.42 986.872 517.7C986.872 520.98 986.452 524.18 985.612 527.3C984.812 530.38 983.592 533.24 981.952 535.88C980.352 538.48 978.332 540.68 975.892 542.48Z" fill="#BD93F9"/>
<path d="M860.477 520.22L859.625 520.743L859.917 521.22H860.477V520.22ZM844.157 493.64V492.64H842.37L843.305 494.163L844.157 493.64ZM855.077 493.64L855.941 493.136L855.651 492.64H855.077V493.64ZM867.617 515.12V516.12H869.359L868.481 514.616L867.617 515.12ZM860.597 515.12L859.733 514.616L858.855 516.12H860.597V515.12ZM873.137 493.64V492.64H872.563L872.273 493.136L873.137 493.64ZM883.817 493.64L884.667 494.166L885.611 492.64H883.817V493.64ZM867.377 520.22V521.22H867.934L868.227 520.746L867.377 520.22ZM859.337 536H858.337V537H859.337V536ZM859.337 515.9V514.9H858.337V515.9H859.337ZM868.757 515.9H869.757V514.9H868.757V515.9ZM868.757 536V537H869.757V536H868.757ZM860.477 520.22L861.329 519.697L845.009 493.117L844.157 493.64L843.305 494.163L859.625 520.743L860.477 520.22ZM844.157 493.64V494.64H855.077V493.64V492.64H844.157V493.64ZM855.077 493.64L854.213 494.144L866.753 515.624L867.617 515.12L868.481 514.616L855.941 493.136L855.077 493.64ZM867.617 515.12V514.12H860.597V515.12V516.12H867.617V515.12ZM860.597 515.12L861.461 515.624L874.001 494.144L873.137 493.64L872.273 493.136L859.733 514.616L860.597 515.12ZM873.137 493.64V494.64H883.817V493.64V492.64H873.137V493.64ZM883.817 493.64L882.966 493.114L866.526 519.694L867.377 520.22L868.227 520.746L884.667 494.166L883.817 493.64ZM867.377 520.22V519.22H860.477V520.22V521.22H867.377V520.22ZM859.337 536H860.337V515.9H859.337H858.337V536H859.337ZM859.337 515.9V516.9H868.757V515.9V514.9H859.337V515.9ZM868.757 515.9H867.757V536H868.757H869.757V515.9H868.757ZM868.757 536V535H859.337V536V537H868.757V536ZM909.115 542.48L908.521 543.285L909.214 543.795L909.822 543.187L909.115 542.48ZM902.995 535.88L902.14 536.398L902.144 536.406L902.149 536.414L902.995 535.88ZM899.335 527.3L898.366 527.548L898.368 527.556L898.37 527.563L899.335 527.3ZM899.335 508.16L898.369 507.9L898.367 507.909L899.335 508.16ZM902.995 499.58L902.145 499.052L902.143 499.056L902.995 499.58ZM909.115 492.92L909.822 492.213L909.214 491.605L908.521 492.115L909.115 492.92ZM910.315 494.12L910.925 494.912L911.827 494.218L911.022 493.413L910.315 494.12ZM902.455 504.32L901.535 503.927L901.532 503.935L902.455 504.32ZM902.455 531.08L901.532 531.465L901.537 531.476L902.455 531.08ZM910.315 541.28L911.022 541.987L911.821 541.188L910.931 540.492L910.315 541.28ZM909.115 542.48L909.709 541.675C907.37 539.95 905.415 537.843 903.841 535.346L902.995 535.88L902.149 536.414C903.855 539.117 905.98 541.41 908.521 543.285L909.115 542.48ZM902.995 535.88L903.85 535.362C902.3 532.804 901.116 530.03 900.3 527.037L899.335 527.3L898.37 527.563C899.234 530.73 900.49 533.676 902.14 536.398L902.995 535.88ZM899.335 527.3L900.304 527.052C899.525 524.014 899.135 520.898 899.135 517.7H898.135H897.135C897.135 521.062 897.545 524.346 898.366 527.548L899.335 527.3ZM898.135 517.7H899.135C899.135 514.502 899.525 511.407 900.303 508.411L899.335 508.16L898.367 507.909C897.545 511.073 897.135 514.338 897.135 517.7H898.135ZM899.335 508.16L900.301 508.42C901.117 505.388 902.3 502.617 903.847 500.104L902.995 499.58L902.143 499.056C900.49 501.743 899.233 504.692 898.369 507.9L899.335 508.16ZM902.995 499.58L903.844 500.108C905.419 497.573 907.373 495.448 909.709 493.725L909.115 492.92L908.521 492.115C905.977 493.992 903.851 496.307 902.145 499.052L902.995 499.58ZM909.115 492.92L908.408 493.627L909.608 494.827L910.315 494.12L911.022 493.413L909.822 492.213L909.115 492.92ZM910.315 494.12L909.705 493.328C906.086 496.114 903.361 499.653 901.535 503.927L902.455 504.32L903.375 504.713C905.069 500.747 907.584 497.486 910.925 494.912L910.315 494.12ZM902.455 504.32L901.532 503.935C899.757 508.186 898.875 512.778 898.875 517.7H899.875H900.875C900.875 513.022 901.712 508.694 903.378 504.705L902.455 504.32ZM899.875 517.7H898.875C898.875 522.622 899.757 527.214 901.532 531.465L902.455 531.08L903.378 530.695C901.712 526.706 900.875 522.378 900.875 517.7H899.875ZM902.455 531.08L901.537 531.476C903.363 535.709 906.086 539.244 909.699 542.068L910.315 541.28L910.931 540.492C907.584 537.876 905.067 534.611 903.373 530.684L902.455 531.08ZM910.315 541.28L909.608 540.573L908.408 541.773L909.115 542.48L909.822 543.187L911.022 541.987L910.315 541.28ZM924.804 536H923.804V537H924.804V536ZM924.804 495.44V494.44H923.804V495.44H924.804ZM926.664 495.44H927.664V494.44H926.664V495.44ZM926.664 536V537H927.664V536H926.664ZM915.804 497.12H914.804V498.12H915.804V497.12ZM915.804 495.44V494.44H914.804V495.44H915.804ZM926.064 495.44H927.064V494.44H926.064V495.44ZM926.064 497.12V498.12H927.064V497.12H926.064ZM924.804 536H925.804V495.44H924.804H923.804V536H924.804ZM924.804 495.44V496.44H926.664V495.44V494.44H924.804V495.44ZM926.664 495.44H925.664V536H926.664H927.664V495.44H926.664ZM926.664 536V535H924.804V536V537H926.664V536ZM915.804 497.12H916.804V495.44H915.804H914.804V497.12H915.804ZM915.804 495.44V496.44H926.064V495.44V494.44H915.804V495.44ZM926.064 495.44H925.064V497.12H926.064H927.064V495.44H926.064ZM926.064 497.12V496.12H915.804V497.12V498.12H926.064V497.12ZM944.201 534.02L943.618 534.833L943.625 534.837L944.201 534.02ZM938.441 526.76L937.531 527.175L937.533 527.179L938.441 526.76ZM938.381 504.62L937.473 504.201L937.47 504.206L938.381 504.62ZM944.141 497.42L944.714 498.239L944.723 498.233L944.141 497.42ZM960.161 497.42L959.578 498.233L959.587 498.239L960.161 497.42ZM965.861 504.62L964.948 505.029L964.953 505.039L965.861 504.62ZM965.861 526.82L964.951 526.405L964.949 526.411L965.861 526.82ZM960.161 534.08L960.741 534.895L960.743 534.893L960.161 534.08ZM959.201 532.52L959.791 533.327L959.794 533.325L959.201 532.52ZM964.241 525.92L965.157 526.32L965.159 526.315L964.241 525.92ZM964.241 505.52L963.324 505.92V505.92L964.241 505.52ZM959.201 498.98L958.601 499.78L958.609 499.786L958.618 499.793L959.201 498.98ZM945.041 498.98L945.631 499.787L945.634 499.785L945.041 498.98ZM940.061 505.52L940.977 505.92V505.92L940.061 505.52ZM940.061 525.92L939.142 526.315L939.144 526.32L940.061 525.92ZM945.041 532.52L944.441 533.32L944.449 533.326L944.458 533.333L945.041 532.52ZM952.241 536.6V535.6C949.532 535.6 947.052 534.807 944.777 533.203L944.201 534.02L943.625 534.837C946.229 536.673 949.11 537.6 952.241 537.6V536.6ZM944.201 534.02L944.783 533.207C942.546 531.604 940.728 529.33 939.349 526.341L938.441 526.76L937.533 527.179C939.033 530.43 941.056 532.997 943.618 534.833L944.201 534.02ZM938.441 526.76L939.351 526.345C937.982 523.341 937.281 519.788 937.281 515.66H936.281H935.281C935.281 520.012 936.02 523.859 937.531 527.175L938.441 526.76ZM936.281 515.66H937.281C937.281 511.486 937.964 507.954 939.291 505.034L938.381 504.62L937.47 504.206C935.998 507.446 935.281 511.274 935.281 515.66H936.281ZM938.381 504.62L939.289 505.039C940.668 502.052 942.483 499.801 944.714 498.239L944.141 497.42L943.567 496.601C940.999 498.399 938.974 500.948 937.473 504.201L938.381 504.62ZM944.141 497.42L944.723 498.233C946.956 496.633 949.412 495.84 952.121 495.84V494.84V493.84C948.989 493.84 946.126 494.767 943.558 496.607L944.141 497.42ZM952.121 494.84V495.84C954.872 495.84 957.349 496.635 959.578 498.233L960.161 497.42L960.743 496.607C958.173 494.765 955.289 493.84 952.121 493.84V494.84ZM960.161 497.42L959.587 498.239C961.816 499.799 963.61 502.046 964.949 505.029L965.861 504.62L966.773 504.211C965.312 500.954 963.305 498.401 960.734 496.601L960.161 497.42ZM965.861 504.62L964.953 505.039C966.319 508 967.021 511.55 967.021 515.72H968.021H969.021C969.021 511.33 968.282 507.48 966.769 504.201L965.861 504.62ZM968.021 515.72H967.021C967.021 519.848 966.32 523.401 964.951 526.405L965.861 526.82L966.771 527.235C968.282 523.919 969.021 520.072 969.021 515.72H968.021ZM965.861 526.82L964.949 526.411C963.609 529.395 961.813 531.665 959.578 533.267L960.161 534.08L960.743 534.893C963.308 533.055 965.312 530.485 966.773 527.229L965.861 526.82ZM960.161 534.08L959.581 533.265C957.392 534.824 954.955 535.6 952.241 535.6V536.6V537.6C955.367 537.6 958.21 536.696 960.741 534.895L960.161 534.08ZM952.121 534.8V535.8C954.967 535.8 957.535 534.976 959.791 533.327L959.201 532.52L958.611 531.713C956.707 533.104 954.554 533.8 952.121 533.8V534.8ZM959.201 532.52L959.794 533.325C962.079 531.644 963.859 529.293 965.157 526.32L964.241 525.92L963.324 525.52C962.142 528.227 960.563 530.276 958.608 531.715L959.201 532.52ZM964.241 525.92L965.159 526.315C966.465 523.282 967.101 519.722 967.101 515.66H966.101H965.101C965.101 519.518 964.496 522.798 963.322 525.525L964.241 525.92ZM966.101 515.66H967.101C967.101 511.637 966.465 508.115 965.157 505.12L964.241 505.52L963.324 505.92C964.497 508.605 965.101 511.843 965.101 515.66H966.101ZM964.241 505.52L965.157 505.12C963.859 502.146 962.075 499.81 959.784 498.167L959.201 498.98L958.618 499.793C960.566 501.19 962.143 503.214 963.324 505.92L964.241 505.52ZM959.201 498.98L959.801 498.18C957.545 496.488 954.974 495.64 952.121 495.64V496.64V497.64C954.548 497.64 956.697 498.352 958.601 499.78L959.201 498.98ZM952.121 496.64V495.64C949.305 495.64 946.738 496.49 944.448 498.175L945.041 498.98L945.634 499.785C947.584 498.35 949.737 497.64 952.121 497.64V496.64ZM945.041 498.98L944.451 498.173C942.201 499.816 940.441 502.151 939.144 505.12L940.061 505.52L940.977 505.92C942.161 503.209 943.72 501.184 945.631 499.787L945.041 498.98ZM940.061 505.52L939.144 505.12C937.837 508.115 937.201 511.637 937.201 515.66H938.201H939.201C939.201 511.843 939.805 508.605 940.977 505.92L940.061 505.52ZM938.201 515.66H937.201C937.201 519.722 937.836 523.282 939.142 526.315L940.061 525.92L940.979 525.525C939.805 522.798 939.201 519.518 939.201 515.66H938.201ZM940.061 525.92L939.144 526.32C940.44 529.288 942.198 531.638 944.441 533.32L945.041 532.52L945.641 531.72C943.723 530.282 942.161 528.232 940.977 525.52L940.061 525.92ZM945.041 532.52L944.458 533.333C946.747 534.974 949.311 535.8 952.121 535.8V534.8V533.8C949.731 533.8 947.574 533.106 945.624 531.707L945.041 532.52ZM975.892 542.48L975.185 543.187L975.793 543.795L976.485 543.285L975.892 542.48ZM974.692 541.28L974.076 540.492L973.185 541.188L973.985 541.987L974.692 541.28ZM982.492 531.08L981.572 530.687L981.57 530.692L982.492 531.08ZM982.492 504.32L981.569 504.705L981.572 504.713L982.492 504.32ZM974.692 494.12L973.985 493.413L973.18 494.218L974.081 494.912L974.692 494.12ZM975.892 492.92L976.485 492.115L975.793 491.605L975.185 492.213L975.892 492.92ZM981.952 499.58L981.096 500.098L981.101 500.106L981.106 500.114L981.952 499.58ZM985.612 508.16L984.643 508.408L984.645 508.416L984.647 508.423L985.612 508.16ZM985.612 527.3L984.646 527.04L984.644 527.049L985.612 527.3ZM981.952 535.88L981.102 535.352L981.1 535.356L981.952 535.88ZM975.892 542.48L976.599 541.773L975.399 540.573L974.692 541.28L973.985 541.987L975.185 543.187L975.892 542.48ZM974.692 541.28L975.307 542.068C978.922 539.243 981.627 535.705 983.413 531.468L982.492 531.08L981.57 530.692C979.916 534.615 977.421 537.877 974.076 540.492L974.692 541.28ZM982.492 531.08L983.411 531.473C985.228 527.22 986.132 522.625 986.132 517.7H985.132H984.132C984.132 522.375 983.275 526.7 981.572 530.687L982.492 531.08ZM985.132 517.7H986.132C986.132 512.775 985.228 508.18 983.411 503.927L982.492 504.32L981.572 504.713C983.275 508.7 984.132 513.025 984.132 517.7H985.132ZM982.492 504.32L983.414 503.935C981.629 499.657 978.922 496.116 975.302 493.328L974.692 494.12L974.081 494.912C977.421 497.484 979.915 500.743 981.569 504.705L982.492 504.32ZM974.692 494.12L975.399 494.827L976.599 493.627L975.892 492.92L975.185 492.213L973.985 493.413L974.692 494.12ZM975.892 492.92L975.298 493.725C977.631 495.446 979.563 497.568 981.096 500.098L981.952 499.58L982.807 499.062C981.14 496.312 979.032 493.994 976.485 492.115L975.892 492.92ZM981.952 499.58L981.106 500.114C982.688 502.621 983.868 505.384 984.643 508.408L985.612 508.16L986.58 507.912C985.756 504.696 984.496 501.739 982.797 499.046L981.952 499.58ZM985.612 508.16L984.647 508.423C985.463 511.415 985.872 514.506 985.872 517.7H986.872H987.872C987.872 514.334 987.44 511.065 986.576 507.897L985.612 508.16ZM986.872 517.7H985.872C985.872 520.894 985.463 524.006 984.646 527.04L985.612 527.3L986.577 527.56C987.44 524.354 987.872 521.066 987.872 517.7H986.872ZM985.612 527.3L984.644 527.049C983.868 530.033 982.688 532.8 981.102 535.352L981.952 535.88L982.801 536.408C984.496 533.68 985.755 530.727 986.58 527.551L985.612 527.3ZM981.952 535.88L981.1 535.356C979.567 537.847 977.634 539.952 975.298 541.675L975.892 542.48L976.485 543.285C979.029 541.408 981.137 539.113 982.803 536.404L981.952 535.88Z" fill="#BD93F9" mask="url(#path-3-outside-2_621_1257)"/>
<mask id="path-5-outside-3_621_1257" maskUnits="userSpaceOnUse" x="842" y="491" width="146" height="53" fill="black">
<rect fill="white" x="842" y="491" width="146" height="53"/>
<path d="M860.477 520.22L844.157 493.64H855.077L867.617 515.12H860.597L873.137 493.64H883.817L867.377 520.22H860.477ZM859.337 536V515.9H868.757V536H859.337ZM909.115 542.48C906.675 540.68 904.635 538.48 902.995 535.88C901.395 533.24 900.175 530.38 899.335 527.3C898.535 524.18 898.135 520.98 898.135 517.7C898.135 514.42 898.535 511.24 899.335 508.16C900.175 505.04 901.395 502.18 902.995 499.58C904.635 496.94 906.675 494.72 909.115 492.92L910.315 494.12C906.835 496.8 904.215 500.2 902.455 504.32C900.735 508.44 899.875 512.9 899.875 517.7C899.875 522.5 900.735 526.96 902.455 531.08C904.215 535.16 906.835 538.56 910.315 541.28L909.115 542.48ZM924.804 536V495.44H926.664V536H924.804ZM915.804 497.12V495.44H926.064V497.12H915.804ZM952.241 536.6C949.321 536.6 946.641 535.74 944.201 534.02C941.801 532.3 939.881 529.88 938.441 526.76C937.001 523.6 936.281 519.9 936.281 515.66C936.281 511.38 936.981 507.7 938.381 504.62C939.821 501.5 941.741 499.1 944.141 497.42C946.541 495.7 949.201 494.84 952.121 494.84C955.081 494.84 957.761 495.7 960.161 497.42C962.561 499.1 964.461 501.5 965.861 504.62C967.301 507.74 968.021 511.44 968.021 515.72C968.021 519.96 967.301 523.66 965.861 526.82C964.461 529.94 962.561 532.36 960.161 534.08C957.801 535.76 955.161 536.6 952.241 536.6ZM952.121 534.8C954.761 534.8 957.121 534.04 959.201 532.52C961.321 530.96 963.001 528.76 964.241 525.92C965.481 523.04 966.101 519.62 966.101 515.66C966.101 511.74 965.481 508.36 964.241 505.52C963.001 502.68 961.321 500.5 959.201 498.98C957.121 497.42 954.761 496.64 952.121 496.64C949.521 496.64 947.161 497.42 945.041 498.98C942.961 500.5 941.301 502.68 940.061 505.52C938.821 508.36 938.201 511.74 938.201 515.66C938.201 519.62 938.821 523.04 940.061 525.92C941.301 528.76 942.961 530.96 945.041 532.52C947.161 534.04 949.521 534.8 952.121 534.8ZM975.892 542.48L974.692 541.28C978.172 538.56 980.772 535.16 982.492 531.08C984.252 526.96 985.132 522.5 985.132 517.7C985.132 512.9 984.252 508.44 982.492 504.32C980.772 500.2 978.172 496.8 974.692 494.12L975.892 492.92C978.332 494.72 980.352 496.94 981.952 499.58C983.592 502.18 984.812 505.04 985.612 508.16C986.452 511.24 986.872 514.42 986.872 517.7C986.872 520.98 986.452 524.18 985.612 527.3C984.812 530.38 983.592 533.24 981.952 535.88C980.352 538.48 978.332 540.68 975.892 542.48Z"/>
</mask>
<path d="M860.477 520.22L844.157 493.64H855.077L867.617 515.12H860.597L873.137 493.64H883.817L867.377 520.22H860.477ZM859.337 536V515.9H868.757V536H859.337ZM909.115 542.48C906.675 540.68 904.635 538.48 902.995 535.88C901.395 533.24 900.175 530.38 899.335 527.3C898.535 524.18 898.135 520.98 898.135 517.7C898.135 514.42 898.535 511.24 899.335 508.16C900.175 505.04 901.395 502.18 902.995 499.58C904.635 496.94 906.675 494.72 909.115 492.92L910.315 494.12C906.835 496.8 904.215 500.2 902.455 504.32C900.735 508.44 899.875 512.9 899.875 517.7C899.875 522.5 900.735 526.96 902.455 531.08C904.215 535.16 906.835 538.56 910.315 541.28L909.115 542.48ZM924.804 536V495.44H926.664V536H924.804ZM915.804 497.12V495.44H926.064V497.12H915.804ZM952.241 536.6C949.321 536.6 946.641 535.74 944.201 534.02C941.801 532.3 939.881 529.88 938.441 526.76C937.001 523.6 936.281 519.9 936.281 515.66C936.281 511.38 936.981 507.7 938.381 504.62C939.821 501.5 941.741 499.1 944.141 497.42C946.541 495.7 949.201 494.84 952.121 494.84C955.081 494.84 957.761 495.7 960.161 497.42C962.561 499.1 964.461 501.5 965.861 504.62C967.301 507.74 968.021 511.44 968.021 515.72C968.021 519.96 967.301 523.66 965.861 526.82C964.461 529.94 962.561 532.36 960.161 534.08C957.801 535.76 955.161 536.6 952.241 536.6ZM952.121 534.8C954.761 534.8 957.121 534.04 959.201 532.52C961.321 530.96 963.001 528.76 964.241 525.92C965.481 523.04 966.101 519.62 966.101 515.66C966.101 511.74 965.481 508.36 964.241 505.52C963.001 502.68 961.321 500.5 959.201 498.98C957.121 497.42 954.761 496.64 952.121 496.64C949.521 496.64 947.161 497.42 945.041 498.98C942.961 500.5 941.301 502.68 940.061 505.52C938.821 508.36 938.201 511.74 938.201 515.66C938.201 519.62 938.821 523.04 940.061 525.92C941.301 528.76 942.961 530.96 945.041 532.52C947.161 534.04 949.521 534.8 952.121 534.8ZM975.892 542.48L974.692 541.28C978.172 538.56 980.772 535.16 982.492 531.08C984.252 526.96 985.132 522.5 985.132 517.7C985.132 512.9 984.252 508.44 982.492 504.32C980.772 500.2 978.172 496.8 974.692 494.12L975.892 492.92C978.332 494.72 980.352 496.94 981.952 499.58C983.592 502.18 984.812 505.04 985.612 508.16C986.452 511.24 986.872 514.42 986.872 517.7C986.872 520.98 986.452 524.18 985.612 527.3C984.812 530.38 983.592 533.24 981.952 535.88C980.352 538.48 978.332 540.68 975.892 542.48Z" fill="#BD93F9"/>
<path d="M860.477 520.22L859.625 520.743L859.917 521.22H860.477V520.22ZM844.157 493.64V492.64H842.37L843.305 494.163L844.157 493.64ZM855.077 493.64L855.941 493.136L855.651 492.64H855.077V493.64ZM867.617 515.12V516.12H869.359L868.481 514.616L867.617 515.12ZM860.597 515.12L859.733 514.616L858.855 516.12H860.597V515.12ZM873.137 493.64V492.64H872.563L872.273 493.136L873.137 493.64ZM883.817 493.64L884.667 494.166L885.611 492.64H883.817V493.64ZM867.377 520.22V521.22H867.934L868.227 520.746L867.377 520.22ZM859.337 536H858.337V537H859.337V536ZM859.337 515.9V514.9H858.337V515.9H859.337ZM868.757 515.9H869.757V514.9H868.757V515.9ZM868.757 536V537H869.757V536H868.757ZM860.477 520.22L861.329 519.697L845.009 493.117L844.157 493.64L843.305 494.163L859.625 520.743L860.477 520.22ZM844.157 493.64V494.64H855.077V493.64V492.64H844.157V493.64ZM855.077 493.64L854.213 494.144L866.753 515.624L867.617 515.12L868.481 514.616L855.941 493.136L855.077 493.64ZM867.617 515.12V514.12H860.597V515.12V516.12H867.617V515.12ZM860.597 515.12L861.461 515.624L874.001 494.144L873.137 493.64L872.273 493.136L859.733 514.616L860.597 515.12ZM873.137 493.64V494.64H883.817V493.64V492.64H873.137V493.64ZM883.817 493.64L882.966 493.114L866.526 519.694L867.377 520.22L868.227 520.746L884.667 494.166L883.817 493.64ZM867.377 520.22V519.22H860.477V520.22V521.22H867.377V520.22ZM859.337 536H860.337V515.9H859.337H858.337V536H859.337ZM859.337 515.9V516.9H868.757V515.9V514.9H859.337V515.9ZM868.757 515.9H867.757V536H868.757H869.757V515.9H868.757ZM868.757 536V535H859.337V536V537H868.757V536ZM909.115 542.48L908.521 543.285L909.214 543.795L909.822 543.187L909.115 542.48ZM902.995 535.88L902.14 536.398L902.144 536.406L902.149 536.414L902.995 535.88ZM899.335 527.3L898.366 527.548L898.368 527.556L898.37 527.563L899.335 527.3ZM899.335 508.16L898.369 507.9L898.367 507.909L899.335 508.16ZM902.995 499.58L902.145 499.052L902.143 499.056L902.995 499.58ZM909.115 492.92L909.822 492.213L909.214 491.605L908.521 492.115L909.115 492.92ZM910.315 494.12L910.925 494.912L911.827 494.218L911.022 493.413L910.315 494.12ZM902.455 504.32L901.535 503.927L901.532 503.935L902.455 504.32ZM902.455 531.08L901.532 531.465L901.537 531.476L902.455 531.08ZM910.315 541.28L911.022 541.987L911.821 541.188L910.931 540.492L910.315 541.28ZM909.115 542.48L909.709 541.675C907.37 539.95 905.415 537.843 903.841 535.346L902.995 535.88L902.149 536.414C903.855 539.117 905.98 541.41 908.521 543.285L909.115 542.48ZM902.995 535.88L903.85 535.362C902.3 532.804 901.116 530.03 900.3 527.037L899.335 527.3L898.37 527.563C899.234 530.73 900.49 533.676 902.14 536.398L902.995 535.88ZM899.335 527.3L900.304 527.052C899.525 524.014 899.135 520.898 899.135 517.7H898.135H897.135C897.135 521.062 897.545 524.346 898.366 527.548L899.335 527.3ZM898.135 517.7H899.135C899.135 514.502 899.525 511.407 900.303 508.411L899.335 508.16L898.367 507.909C897.545 511.073 897.135 514.338 897.135 517.7H898.135ZM899.335 508.16L900.301 508.42C901.117 505.388 902.3 502.617 903.847 500.104L902.995 499.58L902.143 499.056C900.49 501.743 899.233 504.692 898.369 507.9L899.335 508.16ZM902.995 499.58L903.844 500.108C905.419 497.573 907.373 495.448 909.709 493.725L909.115 492.92L908.521 492.115C905.977 493.992 903.851 496.307 902.145 499.052L902.995 499.58ZM909.115 492.92L908.408 493.627L909.608 494.827L910.315 494.12L911.022 493.413L909.822 492.213L909.115 492.92ZM910.315 494.12L909.705 493.328C906.086 496.114 903.361 499.653 901.535 503.927L902.455 504.32L903.375 504.713C905.069 500.747 907.584 497.486 910.925 494.912L910.315 494.12ZM902.455 504.32L901.532 503.935C899.757 508.186 898.875 512.778 898.875 517.7H899.875H900.875C900.875 513.022 901.712 508.694 903.378 504.705L902.455 504.32ZM899.875 517.7H898.875C898.875 522.622 899.757 527.214 901.532 531.465L902.455 531.08L903.378 530.695C901.712 526.706 900.875 522.378 900.875 517.7H899.875ZM902.455 531.08L901.537 531.476C903.363 535.709 906.086 539.244 909.699 542.068L910.315 541.28L910.931 540.492C907.584 537.876 905.067 534.611 903.373 530.684L902.455 531.08ZM910.315 541.28L909.608 540.573L908.408 541.773L909.115 542.48L909.822 543.187L911.022 541.987L910.315 541.28ZM924.804 536H923.804V537H924.804V536ZM924.804 495.44V494.44H923.804V495.44H924.804ZM926.664 495.44H927.664V494.44H926.664V495.44ZM926.664 536V537H927.664V536H926.664ZM915.804 497.12H914.804V498.12H915.804V497.12ZM915.804 495.44V494.44H914.804V495.44H915.804ZM926.064 495.44H927.064V494.44H926.064V495.44ZM926.064 497.12V498.12H927.064V497.12H926.064ZM924.804 536H925.804V495.44H924.804H923.804V536H924.804ZM924.804 495.44V496.44H926.664V495.44V494.44H924.804V495.44ZM926.664 495.44H925.664V536H926.664H927.664V495.44H926.664ZM926.664 536V535H924.804V536V537H926.664V536ZM915.804 497.12H916.804V495.44H915.804H914.804V497.12H915.804ZM915.804 495.44V496.44H926.064V495.44V494.44H915.804V495.44ZM926.064 495.44H925.064V497.12H926.064H927.064V495.44H926.064ZM926.064 497.12V496.12H915.804V497.12V498.12H926.064V497.12ZM944.201 534.02L943.618 534.833L943.625 534.837L944.201 534.02ZM938.441 526.76L937.531 527.175L937.533 527.179L938.441 526.76ZM938.381 504.62L937.473 504.201L937.47 504.206L938.381 504.62ZM944.141 497.42L944.714 498.239L944.723 498.233L944.141 497.42ZM960.161 497.42L959.578 498.233L959.587 498.239L960.161 497.42ZM965.861 504.62L964.948 505.029L964.953 505.039L965.861 504.62ZM965.861 526.82L964.951 526.405L964.949 526.411L965.861 526.82ZM960.161 534.08L960.741 534.895L960.743 534.893L960.161 534.08ZM959.201 532.52L959.791 533.327L959.794 533.325L959.201 532.52ZM964.241 525.92L965.157 526.32L965.159 526.315L964.241 525.92ZM964.241 505.52L963.324 505.92V505.92L964.241 505.52ZM959.201 498.98L958.601 499.78L958.609 499.786L958.618 499.793L959.201 498.98ZM945.041 498.98L945.631 499.787L945.634 499.785L945.041 498.98ZM940.061 505.52L940.977 505.92V505.92L940.061 505.52ZM940.061 525.92L939.142 526.315L939.144 526.32L940.061 525.92ZM945.041 532.52L944.441 533.32L944.449 533.326L944.458 533.333L945.041 532.52ZM952.241 536.6V535.6C949.532 535.6 947.052 534.807 944.777 533.203L944.201 534.02L943.625 534.837C946.229 536.673 949.11 537.6 952.241 537.6V536.6ZM944.201 534.02L944.783 533.207C942.546 531.604 940.728 529.33 939.349 526.341L938.441 526.76L937.533 527.179C939.033 530.43 941.056 532.997 943.618 534.833L944.201 534.02ZM938.441 526.76L939.351 526.345C937.982 523.341 937.281 519.788 937.281 515.66H936.281H935.281C935.281 520.012 936.02 523.859 937.531 527.175L938.441 526.76ZM936.281 515.66H937.281C937.281 511.486 937.964 507.954 939.291 505.034L938.381 504.62L937.47 504.206C935.998 507.446 935.281 511.274 935.281 515.66H936.281ZM938.381 504.62L939.289 505.039C940.668 502.052 942.483 499.801 944.714 498.239L944.141 497.42L943.567 496.601C940.999 498.399 938.974 500.948 937.473 504.201L938.381 504.62ZM944.141 497.42L944.723 498.233C946.956 496.633 949.412 495.84 952.121 495.84V494.84V493.84C948.989 493.84 946.126 494.767 943.558 496.607L944.141 497.42ZM952.121 494.84V495.84C954.872 495.84 957.349 496.635 959.578 498.233L960.161 497.42L960.743 496.607C958.173 494.765 955.289 493.84 952.121 493.84V494.84ZM960.161 497.42L959.587 498.239C961.816 499.799 963.61 502.046 964.949 505.029L965.861 504.62L966.773 504.211C965.312 500.954 963.305 498.401 960.734 496.601L960.161 497.42ZM965.861 504.62L964.953 505.039C966.319 508 967.021 511.55 967.021 515.72H968.021H969.021C969.021 511.33 968.282 507.48 966.769 504.201L965.861 504.62ZM968.021 515.72H967.021C967.021 519.848 966.32 523.401 964.951 526.405L965.861 526.82L966.771 527.235C968.282 523.919 969.021 520.072 969.021 515.72H968.021ZM965.861 526.82L964.949 526.411C963.609 529.395 961.813 531.665 959.578 533.267L960.161 534.08L960.743 534.893C963.308 533.055 965.312 530.485 966.773 527.229L965.861 526.82ZM960.161 534.08L959.581 533.265C957.392 534.824 954.955 535.6 952.241 535.6V536.6V537.6C955.367 537.6 958.21 536.696 960.741 534.895L960.161 534.08ZM952.121 534.8V535.8C954.967 535.8 957.535 534.976 959.791 533.327L959.201 532.52L958.611 531.713C956.707 533.104 954.554 533.8 952.121 533.8V534.8ZM959.201 532.52L959.794 533.325C962.079 531.644 963.859 529.293 965.157 526.32L964.241 525.92L963.324 525.52C962.142 528.227 960.563 530.276 958.608 531.715L959.201 532.52ZM964.241 525.92L965.159 526.315C966.465 523.282 967.101 519.722 967.101 515.66H966.101H965.101C965.101 519.518 964.496 522.798 963.322 525.525L964.241 525.92ZM966.101 515.66H967.101C967.101 511.637 966.465 508.115 965.157 505.12L964.241 505.52L963.324 505.92C964.497 508.605 965.101 511.843 965.101 515.66H966.101ZM964.241 505.52L965.157 505.12C963.859 502.146 962.075 499.81 959.784 498.167L959.201 498.98L958.618 499.793C960.566 501.19 962.143 503.214 963.324 505.92L964.241 505.52ZM959.201 498.98L959.801 498.18C957.545 496.488 954.974 495.64 952.121 495.64V496.64V497.64C954.548 497.64 956.697 498.352 958.601 499.78L959.201 498.98ZM952.121 496.64V495.64C949.305 495.64 946.738 496.49 944.448 498.175L945.041 498.98L945.634 499.785C947.584 498.35 949.737 497.64 952.121 497.64V496.64ZM945.041 498.98L944.451 498.173C942.201 499.816 940.441 502.151 939.144 505.12L940.061 505.52L940.977 505.92C942.161 503.209 943.72 501.184 945.631 499.787L945.041 498.98ZM940.061 505.52L939.144 505.12C937.837 508.115 937.201 511.637 937.201 515.66H938.201H939.201C939.201 511.843 939.805 508.605 940.977 505.92L940.061 505.52ZM938.201 515.66H937.201C937.201 519.722 937.836 523.282 939.142 526.315L940.061 525.92L940.979 525.525C939.805 522.798 939.201 519.518 939.201 515.66H938.201ZM940.061 525.92L939.144 526.32C940.44 529.288 942.198 531.638 944.441 533.32L945.041 532.52L945.641 531.72C943.723 530.282 942.161 528.232 940.977 525.52L940.061 525.92ZM945.041 532.52L944.458 533.333C946.747 534.974 949.311 535.8 952.121 535.8V534.8V533.8C949.731 533.8 947.574 533.106 945.624 531.707L945.041 532.52ZM975.892 542.48L975.185 543.187L975.793 543.795L976.485 543.285L975.892 542.48ZM974.692 541.28L974.076 540.492L973.185 541.188L973.985 541.987L974.692 541.28ZM982.492 531.08L981.572 530.687L981.57 530.692L982.492 531.08ZM982.492 504.32L981.569 504.705L981.572 504.713L982.492 504.32ZM974.692 494.12L973.985 493.413L973.18 494.218L974.081 494.912L974.692 494.12ZM975.892 492.92L976.485 492.115L975.793 491.605L975.185 492.213L975.892 492.92ZM981.952 499.58L981.096 500.098L981.101 500.106L981.106 500.114L981.952 499.58ZM985.612 508.16L984.643 508.408L984.645 508.416L984.647 508.423L985.612 508.16ZM985.612 527.3L984.646 527.04L984.644 527.049L985.612 527.3ZM981.952 535.88L981.102 535.352L981.1 535.356L981.952 535.88ZM975.892 542.48L976.599 541.773L975.399 540.573L974.692 541.28L973.985 541.987L975.185 543.187L975.892 542.48ZM974.692 541.28L975.307 542.068C978.922 539.243 981.627 535.705 983.413 531.468L982.492 531.08L981.57 530.692C979.916 534.615 977.421 537.877 974.076 540.492L974.692 541.28ZM982.492 531.08L983.411 531.473C985.228 527.22 986.132 522.625 986.132 517.7H985.132H984.132C984.132 522.375 983.275 526.7 981.572 530.687L982.492 531.08ZM985.132 517.7H986.132C986.132 512.775 985.228 508.18 983.411 503.927L982.492 504.32L981.572 504.713C983.275 508.7 984.132 513.025 984.132 517.7H985.132ZM982.492 504.32L983.414 503.935C981.629 499.657 978.922 496.116 975.302 493.328L974.692 494.12L974.081 494.912C977.421 497.484 979.915 500.743 981.569 504.705L982.492 504.32ZM974.692 494.12L975.399 494.827L976.599 493.627L975.892 492.92L975.185 492.213L973.985 493.413L974.692 494.12ZM975.892 492.92L975.298 493.725C977.631 495.446 979.563 497.568 981.096 500.098L981.952 499.58L982.807 499.062C981.14 496.312 979.032 493.994 976.485 492.115L975.892 492.92ZM981.952 499.58L981.106 500.114C982.688 502.621 983.868 505.384 984.643 508.408L985.612 508.16L986.58 507.912C985.756 504.696 984.496 501.739 982.797 499.046L981.952 499.58ZM985.612 508.16L984.647 508.423C985.463 511.415 985.872 514.506 985.872 517.7H986.872H987.872C987.872 514.334 987.44 511.065 986.576 507.897L985.612 508.16ZM986.872 517.7H985.872C985.872 520.894 985.463 524.006 984.646 527.04L985.612 527.3L986.577 527.56C987.44 524.354 987.872 521.066 987.872 517.7H986.872ZM985.612 527.3L984.644 527.049C983.868 530.033 982.688 532.8 981.102 535.352L981.952 535.88L982.801 536.408C984.496 533.68 985.755 530.727 986.58 527.551L985.612 527.3ZM981.952 535.88L981.1 535.356C979.567 537.847 977.634 539.952 975.298 541.675L975.892 542.48L976.485 543.285C979.029 541.408 981.137 539.113 982.803 536.404L981.952 535.88Z" fill="#BD93F9" mask="url(#path-5-outside-3_621_1257)"/>
<g clip-path="url(#clip0_621_1257)">
<rect x="27.0007" y="133" width="76" height="76" stroke="#44475A" stroke-width="4"/>
<rect x="103.001" y="133" width="76" height="76" stroke="#44475A" stroke-width="4"/>
<rect x="179.001" y="133" width="76" height="76" stroke="#44475A" stroke-width="4"/>
<rect x="255.001" y="133" width="76" height="76" stroke="#44475A" stroke-width="4"/>
<rect x="331.001" y="133" width="76" height="76" stroke="#44475A" stroke-width="4"/>
<rect x="407.001" y="133" width="76" height="76" stroke="#44475A" stroke-width="4"/>
<rect x="483.001" y="133" width="76" height="76" fill="#FF5555" stroke="#44475A" stroke-width="4"/>
<rect x="559.001" y="133" width="76" height="76" stroke="#44475A" stroke-width="4"/>
<rect x="635.001" y="133" width="76" height="76" stroke="#44475A" stroke-width="4"/>
<rect x="711.001" y="133" width="76" height="76" stroke="#44475A" stroke-width="4"/>
<rect x="787.001" y="133" width="76" height="76" stroke="#44475A" stroke-width="4"/>
</g>
<g clip-path="url(#clip1_621_1257)">
<rect x="27.0007" y="208" width="76" height="76" stroke="#44475A" stroke-width="4"/>
<rect x="103.001" y="208" width="76" height="76" stroke="#44475A" stroke-width="4"/>
<rect x="179.001" y="208" width="76" height="76" stroke="#44475A" stroke-width="4"/>
<rect x="255.001" y="208" width="76" height="76" stroke="#44475A" stroke-width="4"/>
<rect x="331.001" y="208" width="76" height="76" stroke="#44475A" stroke-width="4"/>
<rect x="407.001" y="208" width="76" height="76" stroke="#44475A" stroke-width="4"/>
<rect x="483.001" y="208" width="76" height="76" stroke="#44475A" stroke-width="4"/>
<rect x="559.001" y="208" width="76" height="76" stroke="#44475A" stroke-width="4"/>
<rect x="635.001" y="208" width="76" height="76" stroke="#44475A" stroke-width="4"/>
<rect x="711.001" y="208" width="76" height="76" stroke="#44475A" stroke-width="4"/>
<rect x="787.001" y="208" width="76" height="76" stroke="#44475A" stroke-width="4"/>
</g>
<g clip-path="url(#clip2_621_1257)">
<rect x="27.0007" y="284" width="76" height="76" stroke="#44475A" stroke-width="4"/>
<rect x="103.001" y="284" width="76" height="76" fill="#FF79C6" stroke="#44475A" stroke-width="4"/>
<rect x="179.001" y="284" width="76" height="76" stroke="#44475A" stroke-width="4"/>
<rect x="255.001" y="284" width="76" height="76" stroke="#44475A" stroke-width="4"/>
<rect x="331.001" y="284" width="76" height="76" stroke="#44475A" stroke-width="4"/>
<rect x="407.001" y="284" width="76" height="76" stroke="#44475A" stroke-width="4"/>
<rect x="483.001" y="284" width="76" height="76" stroke="#44475A" stroke-width="4"/>
<rect x="559.001" y="284" width="76" height="76" stroke="#44475A" stroke-width="4"/>
<rect x="635.001" y="284" width="76" height="76" stroke="#44475A" stroke-width="4"/>
<rect x="711.001" y="284" width="76" height="76" stroke="#44475A" stroke-width="4"/>
<rect x="787.001" y="284" width="76" height="76" stroke="#44475A" stroke-width="4"/>
</g>
<g clip-path="url(#clip3_621_1257)">
<rect x="27.0007" y="360" width="76" height="76" stroke="#44475A" stroke-width="4"/>
<rect x="103.001" y="360" width="76" height="76" stroke="#44475A" stroke-width="4"/>
<rect x="179.001" y="360" width="76" height="76" stroke="#44475A" stroke-width="4"/>
<rect x="255.001" y="360" width="76" height="76" stroke="#44475A" stroke-width="4"/>
<rect x="331.001" y="360" width="76" height="76" stroke="#44475A" stroke-width="4"/>
<rect x="407.001" y="360" width="76" height="76" stroke="#44475A" stroke-width="4"/>
<rect x="483.001" y="360" width="76" height="76" stroke="#44475A" stroke-width="4"/>
<rect x="559.001" y="360" width="76" height="76" stroke="#44475A" stroke-width="4"/>
<rect x="635.001" y="360" width="76" height="76" stroke="#44475A" stroke-width="4"/>
<rect x="711.001" y="360" width="76" height="76" stroke="#44475A" stroke-width="4"/>
<rect x="787.001" y="360" width="76" height="76" stroke="#44475A" stroke-width="4"/>
</g>
<g clip-path="url(#clip4_621_1257)">
<rect x="27.0007" y="436" width="76" height="76" stroke="#44475A" stroke-width="4"/>
<rect x="103.001" y="436" width="76" height="76" stroke="#44475A" stroke-width="4"/>
<rect x="179.001" y="436" width="76" height="76" stroke="#44475A" stroke-width="4"/>
<rect x="255.001" y="436" width="76" height="76" stroke="#44475A" stroke-width="4"/>
<rect x="331.001" y="436" width="76" height="76" stroke="#44475A" stroke-width="4"/>
<rect x="407.001" y="436" width="76" height="76" stroke="#44475A" stroke-width="4"/>
<rect x="483.001" y="436" width="76" height="76" stroke="#44475A" stroke-width="4"/>
<rect x="559.001" y="436" width="76" height="76" stroke="#44475A" stroke-width="4"/>
<rect x="635.001" y="436" width="76" height="76" stroke="#44475A" stroke-width="4"/>
<rect x="711.001" y="436" width="76" height="76" stroke="#44475A" stroke-width="4"/>
<rect x="787.001" y="436" width="76" height="76" stroke="#44475A" stroke-width="4"/>
</g>
<g clip-path="url(#clip5_621_1257)">
<rect x="27.0007" y="512" width="76" height="76" stroke="#44475A" stroke-width="4"/>
<rect x="103.001" y="512" width="76" height="76" stroke="#44475A" stroke-width="4"/>
<rect x="179.001" y="512" width="76" height="76" stroke="#44475A" stroke-width="4"/>
<rect x="255.001" y="512" width="76" height="76" stroke="#44475A" stroke-width="4"/>
<rect x="331.001" y="512" width="76" height="76" stroke="#44475A" stroke-width="4"/>
<rect x="407.001" y="512" width="76" height="76" stroke="#44475A" stroke-width="4"/>
<rect x="483.001" y="512" width="76" height="76" stroke="#44475A" stroke-width="4"/>
<rect x="559.001" y="512" width="76" height="76" stroke="#44475A" stroke-width="4"/>
<rect x="635.001" y="512" width="76" height="76" stroke="#44475A" stroke-width="4"/>
<rect x="711.001" y="512" width="76" height="76" stroke="#44475A" stroke-width="4"/>
<rect x="787.001" y="512" width="76" height="76" stroke="#44475A" stroke-width="4"/>
</g>
<g clip-path="url(#clip6_621_1257)">
<rect x="27.0007" y="588" width="76" height="76" stroke="#44475A" stroke-width="4"/>
<rect x="103.001" y="588" width="76" height="76" stroke="#44475A" stroke-width="4"/>
<rect x="179.001" y="588" width="76" height="76" stroke="#44475A" stroke-width="4"/>
<rect x="255.001" y="588" width="76" height="76" stroke="#44475A" stroke-width="4"/>
<rect x="331.001" y="588" width="76" height="76" stroke="#44475A" stroke-width="4"/>
<rect x="407.001" y="588" width="76" height="76" stroke="#44475A" stroke-width="4"/>
<rect x="483.001" y="588" width="76" height="76" stroke="#44475A" stroke-width="4"/>
<rect x="559.001" y="588" width="76" height="76" fill="#FF5555" stroke="#44475A" stroke-width="4"/>
<rect x="635.001" y="588" width="76" height="76" stroke="#44475A" stroke-width="4"/>
<rect x="711.001" y="588" width="76" height="76" stroke="#44475A" stroke-width="4"/>
<rect x="787.001" y="588" width="76" height="76" stroke="#44475A" stroke-width="4"/>
</g>
<g clip-path="url(#clip7_621_1257)">
<rect x="27.0007" y="664" width="76" height="76" stroke="#44475A" stroke-width="4"/>
<rect x="103.001" y="664" width="76" height="76" stroke="#44475A" stroke-width="4"/>
<rect x="179.001" y="664" width="76" height="76" stroke="#44475A" stroke-width="4"/>
<rect x="255.001" y="664" width="76" height="76" stroke="#44475A" stroke-width="4"/>
<rect x="331.001" y="664" width="76" height="76" stroke="#44475A" stroke-width="4"/>
<rect x="407.001" y="664" width="76" height="76" stroke="#44475A" stroke-width="4"/>
<rect x="483.001" y="664" width="76" height="76" stroke="#44475A" stroke-width="4"/>
<rect x="559.001" y="664" width="76" height="76" stroke="#44475A" stroke-width="4"/>
<rect x="635.001" y="664" width="76" height="76" stroke="#44475A" stroke-width="4"/>
<rect x="711.001" y="664" width="76" height="76" stroke="#44475A" stroke-width="4"/>
<rect x="787.001" y="664" width="76" height="76" stroke="#44475A" stroke-width="4"/>
</g>
<g clip-path="url(#clip8_621_1257)">
<rect x="27.0007" y="740" width="76" height="76" stroke="#44475A" stroke-width="4"/>
<rect x="103.001" y="740" width="76" height="76" stroke="#44475A" stroke-width="4"/>
<rect x="179.001" y="740" width="76" height="76" stroke="#44475A" stroke-width="4"/>
<rect x="255.001" y="740" width="76" height="76" stroke="#44475A" stroke-width="4"/>
<rect x="331.001" y="740" width="76" height="76" stroke="#44475A" stroke-width="4"/>
<rect x="407.001" y="740" width="76" height="76" stroke="#44475A" stroke-width="4"/>
<rect x="483.001" y="740" width="76" height="76" stroke="#44475A" stroke-width="4"/>
<rect x="559.001" y="740" width="76" height="76" stroke="#44475A" stroke-width="4"/>
<rect x="635.001" y="740" width="76" height="76" stroke="#44475A" stroke-width="4"/>
<rect x="711.001" y="740" width="76" height="76" stroke="#44475A" stroke-width="4"/>
<rect x="787.001" y="740" width="76" height="76" stroke="#44475A" stroke-width="4"/>
</g>
<g clip-path="url(#clip9_621_1257)">
<rect x="27.0007" y="816" width="76" height="76" stroke="#44475A" stroke-width="4"/>
<rect x="103.001" y="816" width="76" height="76" stroke="#44475A" stroke-width="4"/>
<rect x="179.001" y="816" width="76" height="76" stroke="#44475A" stroke-width="4"/>
<rect x="255.001" y="816" width="76" height="76" stroke="#44475A" stroke-width="4"/>
<rect x="331.001" y="816" width="76" height="76" stroke="#44475A" stroke-width="4"/>
<rect x="407.001" y="816" width="76" height="76" stroke="#44475A" stroke-width="4"/>
<rect x="483.001" y="816" width="76" height="76" stroke="#44475A" stroke-width="4"/>
<rect x="559.001" y="816" width="76" height="76" stroke="#44475A" stroke-width="4"/>
<rect x="635.001" y="816" width="76" height="76" stroke="#44475A" stroke-width="4"/>
<rect x="711.001" y="816" width="76" height="76" stroke="#44475A" stroke-width="4"/>
<rect x="787.001" y="816" width="76" height="76" stroke="#44475A" stroke-width="4"/>
</g>
<path d="M557 610L171.957 358.062" stroke="#FF79C6" stroke-width="20" stroke-linecap="round"/>
<path d="M517.924 565.62C515.644 563.66 513.704 561.3 512.104 558.54C510.504 555.78 509.284 552.76 508.444 549.48C507.604 546.2 507.184 542.76 507.184 539.16C507.184 535.56 507.604 532.12 508.444 528.84C509.284 525.56 510.504 522.54 512.104 519.78C513.704 517.02 515.644 514.66 517.924 512.7L522.964 517.56C520.404 520.04 518.444 523.1 517.084 526.74C515.724 530.38 515.044 534.52 515.044 539.16C515.044 543.76 515.724 547.9 517.084 551.58C518.444 555.22 520.404 558.3 522.964 560.82L517.924 565.62ZM555.086 565.2L559.466 557.04L562.166 556.26C561.886 556.86 561.546 557.36 561.146 557.76C560.746 558.12 560.286 558.3 559.766 558.3C558.606 558.3 557.546 557.82 556.586 556.86C555.626 555.9 555.146 554.7 555.146 553.26C555.146 551.7 555.666 550.36 556.706 549.24C557.786 548.12 559.106 547.56 560.666 547.56C562.146 547.56 563.426 548.12 564.506 549.24C565.626 550.32 566.186 551.66 566.186 553.26C566.186 553.9 566.066 554.64 565.826 555.48C565.586 556.32 565.106 557.42 564.386 558.78L559.526 567.66L555.086 565.2ZM672.102 565.62L667.062 560.82C669.622 558.3 671.582 555.22 672.942 551.58C674.302 547.9 674.982 543.76 674.982 539.16C674.982 534.52 674.302 530.38 672.942 526.74C671.582 523.1 669.622 520.04 667.062 517.56L672.102 512.7C674.382 514.66 676.322 517.02 677.922 519.78C679.522 522.54 680.742 525.56 681.582 528.84C682.422 532.12 682.842 535.56 682.842 539.16C682.842 542.76 682.422 546.2 681.582 549.48C680.742 552.76 679.522 555.78 677.922 558.54C676.322 561.3 674.382 563.66 672.102 565.62Z" fill="black"/>
<path d="M530.678 558L545.078 520.92H554.258L540.398 558H530.678ZM525.038 523.62V515.64H554.258V520.92L551.138 523.62H525.038Z" fill="#8BE9FD"/>
<path d="M597.484 558.66C594.524 558.66 591.844 558 589.444 556.68C587.084 555.36 585.204 553.6 583.804 551.4C582.444 549.16 581.764 546.66 581.764 543.9C581.764 540.3 583.024 536.66 585.544 532.98L597.484 515.64H608.104L594.844 534.12L591.304 534.42C591.864 533.46 592.444 532.64 593.044 531.96C593.684 531.24 594.484 530.7 595.444 530.34C596.404 529.94 597.624 529.74 599.104 529.74C601.744 529.74 604.104 530.36 606.184 531.6C608.304 532.8 610.004 534.46 611.284 536.58C612.564 538.66 613.204 541.06 613.204 543.78C613.204 546.54 612.504 549.06 611.104 551.34C609.704 553.58 607.824 555.36 605.464 556.68C603.104 558 600.444 558.66 597.484 558.66ZM597.484 550.44C598.724 550.44 599.844 550.14 600.844 549.54C601.844 548.94 602.624 548.12 603.184 547.08C603.744 546.04 604.024 544.88 604.024 543.6C604.024 542.28 603.744 541.12 603.184 540.12C602.624 539.08 601.844 538.28 600.844 537.72C599.844 537.12 598.724 536.82 597.484 536.82C596.204 536.82 595.064 537.12 594.064 537.72C593.104 538.28 592.344 539.08 591.784 540.12C591.224 541.12 590.944 542.28 590.944 543.6C590.944 544.88 591.224 546.04 591.784 547.08C592.344 548.12 593.104 548.94 594.064 549.54C595.064 550.14 596.204 550.44 597.484 550.44ZM623.658 558.66C622.098 558.66 620.798 558.12 619.758 557.04C618.718 555.96 618.198 554.66 618.198 553.14C618.198 551.54 618.718 550.22 619.758 549.18C620.798 548.1 622.098 547.56 623.658 547.56C625.258 547.56 626.558 548.1 627.558 549.18C628.598 550.22 629.118 551.54 629.118 553.14C629.118 554.66 628.598 555.96 627.558 557.04C626.558 558.12 625.258 558.66 623.658 558.66ZM647.826 558.66C644.906 558.66 642.226 558.16 639.786 557.16C637.346 556.12 635.286 554.64 633.606 552.72L639.666 546.66C640.426 547.78 641.526 548.7 642.966 549.42C644.446 550.1 646.006 550.44 647.646 550.44C649.126 550.44 650.406 550.18 651.486 549.66C652.566 549.14 653.406 548.4 654.006 547.44C654.646 546.48 654.966 545.34 654.966 544.02C654.966 542.7 654.646 541.58 654.006 540.66C653.406 539.7 652.506 538.96 651.306 538.44C650.146 537.92 648.746 537.66 647.106 537.66C646.346 537.66 645.546 537.72 644.706 537.84C643.906 537.92 643.226 538.06 642.666 538.26L646.806 533.04C647.926 532.72 648.986 532.46 649.986 532.26C651.026 532.02 651.986 531.9 652.866 531.9C655.026 531.9 656.966 532.42 658.686 533.46C660.406 534.46 661.766 535.9 662.766 537.78C663.806 539.62 664.326 541.82 664.326 544.38C664.326 547.18 663.626 549.66 662.226 551.82C660.866 553.98 658.946 555.66 656.466 556.86C654.026 558.06 651.146 558.66 647.826 558.66ZM642.666 538.26V533.04L652.986 520.92L663.546 520.86L652.806 533.1L642.666 538.26ZM636.246 523.62V515.64H663.546V520.86L656.166 523.62H636.246Z" fill="#BD93F9"/>
<path d="M25.0005 98.5H789.001" stroke="#8BE9FD" stroke-width="6" stroke-linecap="round"/>
<path d="M825.001 893L825.001 131" stroke="#BD93F9" stroke-width="6" stroke-linecap="round"/>
<mask id="path-121-outside-4_621_1257" maskUnits="userSpaceOnUse" x="330.001" y="37" width="150" height="53" fill="black">
<rect fill="white" x="330.001" y="37" width="150" height="53"/>
<path d="M362.638 82L350.818 63.1H349.678L333.358 39.64H344.578L356.218 57.4H357.358L373.678 82H362.638ZM332.578 82L348.238 59.32L355.498 63.4L343.318 82H332.578ZM357.718 62.02L350.458 57.94L362.218 39.64H372.958L357.718 62.02ZM400.815 88.48C398.375 86.68 396.335 84.48 394.695 81.88C393.095 79.24 391.875 76.38 391.035 73.3C390.235 70.18 389.835 66.98 389.835 63.7C389.835 60.42 390.235 57.24 391.035 54.16C391.875 51.04 393.095 48.18 394.695 45.58C396.335 42.94 398.375 40.72 400.815 38.92L402.015 40.12C398.535 42.8 395.915 46.2 394.155 50.32C392.435 54.44 391.575 58.9 391.575 63.7C391.575 68.5 392.435 72.96 394.155 77.08C395.915 81.16 398.535 84.56 402.015 87.28L400.815 88.48ZM416.503 82V41.44H418.363V82H416.503ZM407.503 43.12V41.44H417.763V43.12H407.503ZM443.941 82.6C441.021 82.6 438.341 81.74 435.901 80.02C433.501 78.3 431.581 75.88 430.141 72.76C428.701 69.6 427.981 65.9 427.981 61.66C427.981 57.38 428.681 53.7 430.081 50.62C431.521 47.5 433.441 45.1 435.841 43.42C438.241 41.7 440.901 40.84 443.821 40.84C446.781 40.84 449.461 41.7 451.861 43.42C454.261 45.1 456.161 47.5 457.561 50.62C459.001 53.74 459.721 57.44 459.721 61.72C459.721 65.96 459.001 69.66 457.561 72.82C456.161 75.94 454.261 78.36 451.861 80.08C449.501 81.76 446.861 82.6 443.941 82.6ZM443.821 80.8C446.461 80.8 448.821 80.04 450.901 78.52C453.021 76.96 454.701 74.76 455.941 71.92C457.181 69.04 457.801 65.62 457.801 61.66C457.801 57.74 457.181 54.36 455.941 51.52C454.701 48.68 453.021 46.5 450.901 44.98C448.821 43.42 446.461 42.64 443.821 42.64C441.221 42.64 438.861 43.42 436.741 44.98C434.661 46.5 433.001 48.68 431.761 51.52C430.521 54.36 429.901 57.74 429.901 61.66C429.901 65.62 430.521 69.04 431.761 71.92C433.001 74.76 434.661 76.96 436.741 78.52C438.861 80.04 441.221 80.8 443.821 80.8ZM467.592 88.48L466.392 87.28C469.872 84.56 472.472 81.16 474.192 77.08C475.952 72.96 476.832 68.5 476.832 63.7C476.832 58.9 475.952 54.44 474.192 50.32C472.472 46.2 469.872 42.8 466.392 40.12L467.592 38.92C470.032 40.72 472.052 42.94 473.652 45.58C475.292 48.18 476.512 51.04 477.312 54.16C478.152 57.24 478.572 60.42 478.572 63.7C478.572 66.98 478.152 70.18 477.312 73.3C476.512 76.38 475.292 79.24 473.652 81.88C472.052 84.48 470.032 86.68 467.592 88.48Z"/>
</mask>
<path d="M362.638 82L350.818 63.1H349.678L333.358 39.64H344.578L356.218 57.4H357.358L373.678 82H362.638ZM332.578 82L348.238 59.32L355.498 63.4L343.318 82H332.578ZM357.718 62.02L350.458 57.94L362.218 39.64H372.958L357.718 62.02ZM400.815 88.48C398.375 86.68 396.335 84.48 394.695 81.88C393.095 79.24 391.875 76.38 391.035 73.3C390.235 70.18 389.835 66.98 389.835 63.7C389.835 60.42 390.235 57.24 391.035 54.16C391.875 51.04 393.095 48.18 394.695 45.58C396.335 42.94 398.375 40.72 400.815 38.92L402.015 40.12C398.535 42.8 395.915 46.2 394.155 50.32C392.435 54.44 391.575 58.9 391.575 63.7C391.575 68.5 392.435 72.96 394.155 77.08C395.915 81.16 398.535 84.56 402.015 87.28L400.815 88.48ZM416.503 82V41.44H418.363V82H416.503ZM407.503 43.12V41.44H417.763V43.12H407.503ZM443.941 82.6C441.021 82.6 438.341 81.74 435.901 80.02C433.501 78.3 431.581 75.88 430.141 72.76C428.701 69.6 427.981 65.9 427.981 61.66C427.981 57.38 428.681 53.7 430.081 50.62C431.521 47.5 433.441 45.1 435.841 43.42C438.241 41.7 440.901 40.84 443.821 40.84C446.781 40.84 449.461 41.7 451.861 43.42C454.261 45.1 456.161 47.5 457.561 50.62C459.001 53.74 459.721 57.44 459.721 61.72C459.721 65.96 459.001 69.66 457.561 72.82C456.161 75.94 454.261 78.36 451.861 80.08C449.501 81.76 446.861 82.6 443.941 82.6ZM443.821 80.8C446.461 80.8 448.821 80.04 450.901 78.52C453.021 76.96 454.701 74.76 455.941 71.92C457.181 69.04 457.801 65.62 457.801 61.66C457.801 57.74 457.181 54.36 455.941 51.52C454.701 48.68 453.021 46.5 450.901 44.98C448.821 43.42 446.461 42.64 443.821 42.64C441.221 42.64 438.861 43.42 436.741 44.98C434.661 46.5 433.001 48.68 431.761 51.52C430.521 54.36 429.901 57.74 429.901 61.66C429.901 65.62 430.521 69.04 431.761 71.92C433.001 74.76 434.661 76.96 436.741 78.52C438.861 80.04 441.221 80.8 443.821 80.8ZM467.592 88.48L466.392 87.28C469.872 84.56 472.472 81.16 474.192 77.08C475.952 72.96 476.832 68.5 476.832 63.7C476.832 58.9 475.952 54.44 474.192 50.32C472.472 46.2 469.872 42.8 466.392 40.12L467.592 38.92C470.032 40.72 472.052 42.94 473.652 45.58C475.292 48.18 476.512 51.04 477.312 54.16C478.152 57.24 478.572 60.42 478.572 63.7C478.572 66.98 478.152 70.18 477.312 73.3C476.512 76.38 475.292 79.24 473.652 81.88C472.052 84.48 470.032 86.68 467.592 88.48Z" fill="#8BE9FD"/>
<path d="M362.638 82L361.791 82.5302L362.084 83H362.638V82ZM350.818 63.1L351.666 62.5698L351.373 62.1H350.818V63.1ZM349.678 63.1L348.858 63.6711L349.156 64.1H349.678V63.1ZM333.358 39.64V38.64H331.445L332.538 40.2111L333.358 39.64ZM344.578 39.64L345.415 39.0918L345.119 38.64H344.578V39.64ZM356.218 57.4L355.382 57.9482L355.678 58.4H356.218V57.4ZM357.358 57.4L358.192 56.8472L357.895 56.4H357.358V57.4ZM373.678 82V83H375.542L374.512 81.4472L373.678 82ZM332.578 82L331.756 81.4318L330.673 83H332.578V82ZM348.238 59.32L348.728 58.4482L347.934 58.0016L347.416 58.7518L348.238 59.32ZM355.498 63.4L356.335 63.9478L356.921 63.0525L355.988 62.5282L355.498 63.4ZM343.318 82V83H343.859L344.155 82.5478L343.318 82ZM357.718 62.02L357.229 62.8918L358.029 63.3413L358.545 62.5829L357.718 62.02ZM350.458 57.94L349.617 57.3994L349.044 58.292L349.969 58.8118L350.458 57.94ZM362.218 39.64V38.64H361.672L361.377 39.0994L362.218 39.64ZM372.958 39.64L373.785 40.2029L374.849 38.64H372.958V39.64ZM362.638 82L363.486 81.4698L351.666 62.5698L350.818 63.1L349.971 63.6302L361.791 82.5302L362.638 82ZM350.818 63.1V62.1H349.678V63.1V64.1H350.818V63.1ZM349.678 63.1L350.499 62.5289L334.179 39.0689L333.358 39.64L332.538 40.2111L348.858 63.6711L349.678 63.1ZM333.358 39.64V40.64H344.578V39.64V38.64H333.358V39.64ZM344.578 39.64L343.742 40.1882L355.382 57.9482L356.218 57.4L357.055 56.8518L345.415 39.0918L344.578 39.64ZM356.218 57.4V58.4H357.358V57.4V56.4H356.218V57.4ZM357.358 57.4L356.525 57.9528L372.845 82.5528L373.678 82L374.512 81.4472L358.192 56.8472L357.358 57.4ZM373.678 82V81H362.638V82V83H373.678V82ZM332.578 82L333.401 82.5682L349.061 59.8882L348.238 59.32L347.416 58.7518L331.756 81.4318L332.578 82ZM348.238 59.32L347.749 60.1918L355.009 64.2718L355.498 63.4L355.988 62.5282L348.728 58.4482L348.238 59.32ZM355.498 63.4L354.662 62.8522L342.482 81.4522L343.318 82L344.155 82.5478L356.335 63.9478L355.498 63.4ZM343.318 82V81H332.578V82V83H343.318V82ZM357.718 62.02L358.208 61.1482L350.948 57.0682L350.458 57.94L349.969 58.8118L357.229 62.8918L357.718 62.02ZM350.458 57.94L351.3 58.4806L363.06 40.1806L362.218 39.64L361.377 39.0994L349.617 57.3994L350.458 57.94ZM362.218 39.64V40.64H372.958V39.64V38.64H362.218V39.64ZM372.958 39.64L372.132 39.0771L356.892 61.4571L357.718 62.02L358.545 62.5829L373.785 40.2029L372.958 39.64ZM400.815 88.48L400.221 89.2847L400.914 89.7955L401.522 89.1871L400.815 88.48ZM394.695 81.88L393.84 82.3983L393.844 82.4059L393.849 82.4135L394.695 81.88ZM391.035 73.3L390.066 73.5484L390.068 73.5558L390.07 73.5631L391.035 73.3ZM391.035 54.16L390.069 53.9L390.067 53.9086L391.035 54.16ZM394.695 45.58L393.845 45.0523L393.843 45.0559L394.695 45.58ZM400.815 38.92L401.522 38.2129L400.914 37.6045L400.221 38.1153L400.815 38.92ZM402.015 40.12L402.625 40.9123L403.527 40.2178L402.722 39.4129L402.015 40.12ZM394.155 50.32L393.235 49.9271L393.232 49.9347L394.155 50.32ZM394.155 77.08L393.232 77.4653L393.237 77.4761L394.155 77.08ZM402.015 87.28L402.722 87.9871L403.521 87.188L402.631 86.4921L402.015 87.28ZM400.815 88.48L401.409 87.6753C399.07 85.9502 397.115 83.8427 395.541 81.3465L394.695 81.88L393.849 82.4135C395.555 85.1173 397.68 87.4098 400.221 89.2847L400.815 88.48ZM394.695 81.88L395.55 81.3617C394 78.8039 392.816 76.0302 392 73.0369L391.035 73.3L390.07 73.5631C390.934 76.7298 392.19 79.6761 393.84 82.3983L394.695 81.88ZM391.035 73.3L392.004 73.0516C391.225 70.0143 390.835 66.8978 390.835 63.7H389.835H388.835C388.835 67.0622 389.245 70.3457 390.066 73.5484L391.035 73.3ZM389.835 63.7H390.835C390.835 60.5022 391.225 57.4068 392.003 54.4114L391.035 54.16L390.067 53.9086C389.245 57.0732 388.835 60.3378 388.835 63.7H389.835ZM391.035 54.16L392 54.42C392.817 51.3876 394 48.6173 395.547 46.1041L394.695 45.58L393.843 45.0559C392.19 47.7427 390.933 50.6924 390.069 53.9L391.035 54.16ZM394.695 45.58L395.544 46.1077C397.119 43.5727 399.073 41.4475 401.409 39.7247L400.815 38.92L400.221 38.1153C397.677 39.9925 395.551 42.3073 393.845 45.0523L394.695 45.58ZM400.815 38.92L400.108 39.6271L401.308 40.8271L402.015 40.12L402.722 39.4129L401.522 38.2129L400.815 38.92ZM402.015 40.12L401.405 39.3277C397.786 42.1143 395.061 45.653 393.235 49.9272L394.155 50.32L395.074 50.7128C396.769 46.747 399.283 43.4857 402.625 40.9123L402.015 40.12ZM394.155 50.32L393.232 49.9347C391.457 54.1857 390.575 58.7778 390.575 63.7H391.575H392.575C392.575 59.0222 393.412 54.6943 395.078 50.7053L394.155 50.32ZM391.575 63.7H390.575C390.575 68.6222 391.457 73.2143 393.232 77.4653L394.155 77.08L395.078 76.6947C393.412 72.7057 392.575 68.3778 392.575 63.7H391.575ZM394.155 77.08L393.237 77.4761C395.063 81.709 397.786 85.244 401.399 88.0679L402.015 87.28L402.631 86.4921C399.284 83.876 396.767 80.611 395.073 76.6839L394.155 77.08ZM402.015 87.28L401.308 86.5729L400.108 87.7729L400.815 88.48L401.522 89.1871L402.722 87.9871L402.015 87.28ZM416.503 82H415.503V83H416.503V82ZM416.503 41.44V40.44H415.503V41.44H416.503ZM418.363 41.44H419.363V40.44H418.363V41.44ZM418.363 82V83H419.363V82H418.363ZM407.503 43.12H406.503V44.12H407.503V43.12ZM407.503 41.44V40.44H406.503V41.44H407.503ZM417.763 41.44H418.763V40.44H417.763V41.44ZM417.763 43.12V44.12H418.763V43.12H417.763ZM416.503 82H417.503V41.44H416.503H415.503V82H416.503ZM416.503 41.44V42.44H418.363V41.44V40.44H416.503V41.44ZM418.363 41.44H417.363V82H418.363H419.363V41.44H418.363ZM418.363 82V81H416.503V82V83H418.363V82ZM407.503 43.12H408.503V41.44H407.503H406.503V43.12H407.503ZM407.503 41.44V42.44H417.763V41.44V40.44H407.503V41.44ZM417.763 41.44H416.763V43.12H417.763H418.763V41.44H417.763ZM417.763 43.12V42.12H407.503V43.12V44.12H417.763V43.12ZM435.901 80.02L435.318 80.8328L435.325 80.8373L435.901 80.02ZM430.141 72.76L429.231 73.1747L429.233 73.1791L430.141 72.76ZM430.081 50.62L429.173 50.2009L429.17 50.2062L430.081 50.62ZM435.841 43.42L436.414 44.2393L436.423 44.2328L435.841 43.42ZM451.861 43.42L451.278 44.2329L451.287 44.2392L451.861 43.42ZM457.561 50.62L456.648 51.0294L456.653 51.0391L457.561 50.62ZM457.561 72.82L456.651 72.4053L456.648 72.4106L457.561 72.82ZM451.861 80.08L452.441 80.8947L452.443 80.8928L451.861 80.08ZM450.901 78.52L451.491 79.3274L451.493 79.3254L450.901 78.52ZM455.941 71.92L456.857 72.3201L456.859 72.3155L455.941 71.92ZM455.941 51.52L455.024 51.9201V51.9201L455.941 51.52ZM450.901 44.98L450.301 45.78L450.309 45.7864L450.318 45.7927L450.901 44.98ZM436.741 44.98L437.331 45.7874L437.333 45.7854L436.741 44.98ZM431.761 51.52L432.677 51.9201V51.9201L431.761 51.52ZM431.761 71.92L430.842 72.3155L430.844 72.3201L431.761 71.92ZM436.741 78.52L436.141 79.32L436.149 79.3264L436.158 79.3327L436.741 78.52ZM443.941 82.6V81.6C441.232 81.6 438.752 80.8066 436.477 79.2027L435.901 80.02L435.325 80.8373C437.929 82.6734 440.81 83.6 443.941 83.6V82.6ZM435.901 80.02L436.483 79.2072C434.246 77.6035 432.428 75.3297 431.049 72.3409L430.141 72.76L429.233 73.1791C430.733 76.4303 432.756 78.9965 435.318 80.8328L435.901 80.02ZM430.141 72.76L431.051 72.3453C429.682 69.341 428.981 65.7879 428.981 61.66H427.981H426.981C426.981 66.0121 427.72 69.859 429.231 73.1747L430.141 72.76ZM427.981 61.66H428.981C428.981 57.4862 429.664 53.9542 430.991 51.0338L430.081 50.62L429.17 50.2062C427.698 53.4458 426.981 57.2738 426.981 61.66H427.981ZM430.081 50.62L430.989 51.0391C432.368 48.0517 434.183 45.8014 436.414 44.2392L435.841 43.42L435.267 42.6008C432.699 44.3986 430.674 46.9483 429.173 50.2009L430.081 50.62ZM435.841 43.42L436.423 44.2328C438.656 42.6331 441.112 41.84 443.821 41.84V40.84V39.84C440.689 39.84 437.826 40.7669 435.258 42.6072L435.841 43.42ZM443.821 40.84V41.84C446.572 41.84 449.049 42.6349 451.278 44.2328L451.861 43.42L452.443 42.6072C449.873 40.7651 446.989 39.84 443.821 39.84V40.84ZM451.861 43.42L451.287 44.2392C453.516 45.7995 455.31 48.0462 456.648 51.0294L457.561 50.62L458.473 50.2106C457.012 46.9538 455.005 44.4005 452.434 42.6008L451.861 43.42ZM457.561 50.62L456.653 51.0391C458.019 53.9995 458.721 57.5501 458.721 61.72H459.721H460.721C460.721 57.3299 459.982 53.4805 458.469 50.2009L457.561 50.62ZM459.721 61.72H458.721C458.721 65.8479 458.02 69.401 456.651 72.4053L457.561 72.82L458.471 73.2347C459.982 69.919 460.721 66.0721 460.721 61.72H459.721ZM457.561 72.82L456.648 72.4106C455.309 75.3952 453.513 77.6655 451.278 79.2672L451.861 80.08L452.443 80.8928C455.008 79.0545 457.012 76.4848 458.473 73.2294L457.561 72.82ZM451.861 80.08L451.281 79.2653C449.092 80.8238 446.655 81.6 443.941 81.6V82.6V83.6C447.067 83.6 449.91 82.6962 452.441 80.8947L451.861 80.08ZM443.821 80.8V81.8C446.667 81.8 449.235 80.9758 451.491 79.3274L450.901 78.52L450.311 77.7126C448.407 79.1042 446.254 79.8 443.821 79.8V80.8ZM450.901 78.52L451.493 79.3254C453.779 77.644 455.559 75.2926 456.857 72.3201L455.941 71.92L455.024 71.5199C453.842 74.2274 452.263 76.276 450.308 77.7146L450.901 78.52ZM455.941 71.92L456.859 72.3155C458.165 69.2824 458.801 65.7215 458.801 61.66H457.801H456.801C456.801 65.5185 456.196 68.7976 455.022 71.5245L455.941 71.92ZM457.801 61.66H458.801C458.801 57.6375 458.165 54.1148 456.857 51.1199L455.941 51.52L455.024 51.9201C456.197 54.6052 456.801 57.8425 456.801 61.66H457.801ZM455.941 51.52L456.857 51.1199C455.559 48.146 453.775 45.8105 451.483 44.1673L450.901 44.98L450.318 45.7927C452.266 47.1895 453.843 49.214 455.024 51.9201L455.941 51.52ZM450.901 44.98L451.501 44.18C449.245 42.488 446.674 41.64 443.821 41.64V42.64V43.64C446.248 43.64 448.397 44.352 450.301 45.78L450.901 44.98ZM443.821 42.64V41.64C441.005 41.64 438.438 42.4899 436.148 44.1746L436.741 44.98L437.333 45.7854C439.284 44.3501 441.437 43.64 443.821 43.64V42.64ZM436.741 44.98L436.151 44.1726C433.901 45.8164 432.141 48.1506 430.844 51.1199L431.761 51.52L432.677 51.9201C433.861 49.2094 435.42 47.1836 437.331 45.7874L436.741 44.98ZM431.761 51.52L430.844 51.1199C429.537 54.1148 428.901 57.6375 428.901 61.66H429.901H430.901C430.901 57.8425 431.505 54.6052 432.677 51.9201L431.761 51.52ZM429.901 61.66H428.901C428.901 65.7215 429.536 69.2824 430.842 72.3155L431.761 71.92L432.679 71.5245C431.505 68.7976 430.901 65.5185 430.901 61.66H429.901ZM431.761 71.92L430.844 72.3201C432.14 75.2881 433.898 77.638 436.141 79.32L436.741 78.52L437.341 77.72C435.423 76.282 433.861 74.2319 432.677 71.5199L431.761 71.92ZM436.741 78.52L436.158 79.3327C438.447 80.9741 441.011 81.8 443.821 81.8V80.8V79.8C441.431 79.8 439.274 79.1059 437.323 77.7073L436.741 78.52ZM467.592 88.48L466.884 89.1871L467.493 89.7955L468.185 89.2847L467.592 88.48ZM466.392 87.28L465.776 86.4921L464.885 87.188L465.684 87.9871L466.392 87.28ZM474.192 77.08L473.272 76.6872L473.27 76.6915L474.192 77.08ZM474.192 50.32L473.269 50.7053L473.272 50.7128L474.192 50.32ZM466.392 40.12L465.684 39.4129L464.88 40.2178L465.781 40.9123L466.392 40.12ZM467.592 38.92L468.185 38.1153L467.493 37.6045L466.884 38.2129L467.592 38.92ZM473.652 45.58L472.796 46.0983L472.801 46.1059L472.806 46.1135L473.652 45.58ZM477.312 54.16L476.343 54.4084L476.345 54.4158L476.347 54.4231L477.312 54.16ZM477.312 73.3L476.346 73.04L476.344 73.0486L477.312 73.3ZM473.652 81.88L472.802 81.3523L472.8 81.3559L473.652 81.88ZM467.592 88.48L468.299 87.7729L467.099 86.5729L466.392 87.28L465.684 87.9871L466.884 89.1871L467.592 88.48ZM466.392 87.28L467.007 88.0679C470.622 85.2427 473.327 81.7051 475.113 77.4685L474.192 77.08L473.27 76.6915C471.616 80.6149 469.121 83.8773 465.776 86.4921L466.392 87.28ZM474.192 77.08L475.111 77.4728C476.928 73.22 477.832 68.6253 477.832 63.7H476.832H475.832C475.832 68.3747 474.975 72.7 473.272 76.6872L474.192 77.08ZM476.832 63.7H477.832C477.832 58.7747 476.928 54.18 475.111 49.9272L474.192 50.32L473.272 50.7128C474.975 54.7 475.832 59.0253 475.832 63.7H476.832ZM474.192 50.32L475.114 49.9347C473.329 45.6569 470.622 42.1157 467.002 39.3277L466.392 40.12L465.781 40.9123C469.121 43.4843 471.615 46.743 473.269 50.7053L474.192 50.32ZM466.392 40.12L467.099 40.8271L468.299 39.6271L467.592 38.92L466.884 38.2129L465.684 39.4129L466.392 40.12ZM467.592 38.92L466.998 39.7247C469.331 41.4458 471.263 43.5679 472.796 46.0983L473.652 45.58L474.507 45.0617C472.84 42.3121 470.732 39.9942 468.185 38.1153L467.592 38.92ZM473.652 45.58L472.806 46.1135C474.388 48.6213 475.568 51.3844 476.343 54.4084L477.312 54.16L478.28 53.9116C477.456 50.6956 476.196 47.7387 474.497 45.0465L473.652 45.58ZM477.312 54.16L476.347 54.4231C477.163 57.415 477.572 60.5064 477.572 63.7H478.572H479.572C479.572 60.3336 479.14 57.065 478.276 53.8969L477.312 54.16ZM478.572 63.7H477.572C477.572 66.8936 477.163 70.0061 476.346 73.04L477.312 73.3L478.277 73.56C479.14 70.3539 479.572 67.0664 479.572 63.7H478.572ZM477.312 73.3L476.344 73.0486C475.568 76.0334 474.388 78.8 472.802 81.3523L473.652 81.88L474.501 82.4077C476.195 79.68 477.455 76.7266 478.279 73.5514L477.312 73.3ZM473.652 81.88L472.8 81.3559C471.267 83.8475 469.334 85.9519 466.998 87.6753L467.592 88.48L468.185 89.2847C470.729 87.4081 472.837 85.1125 474.503 82.4041L473.652 81.88Z" fill="#8BE9FD" mask="url(#path-121-outside-4_621_1257)"/>
<defs>
<clipPath id="clip0_621_1257">
<rect width="764" height="80" fill="white" transform="translate(25.0007 131)"/>
</clipPath>
<clipPath id="clip1_621_1257">
<rect width="764" height="80" fill="white" transform="translate(25.0007 206)"/>
</clipPath>
<clipPath id="clip2_621_1257">
<rect width="764" height="80" fill="white" transform="translate(25.0007 282)"/>
</clipPath>
<clipPath id="clip3_621_1257">
<rect width="764" height="80" fill="white" transform="translate(25.0007 358)"/>
</clipPath>
<clipPath id="clip4_621_1257">
<rect width="764" height="80" fill="white" transform="translate(25.0007 434)"/>
</clipPath>
<clipPath id="clip5_621_1257">
<rect width="764" height="80" fill="white" transform="translate(25.0007 510)"/>
</clipPath>
<clipPath id="clip6_621_1257">
<rect width="764" height="80" fill="white" transform="translate(25.0007 586)"/>
</clipPath>
<clipPath id="clip7_621_1257">
<rect width="764" height="80" fill="white" transform="translate(25.0007 662)"/>
</clipPath>
<clipPath id="clip8_621_1257">
<rect width="764" height="80" fill="white" transform="translate(25.0007 738)"/>
</clipPath>
<clipPath id="clip9_621_1257">
<rect width="764" height="80" fill="white" transform="translate(25.0007 814)"/>
</clipPath>
</defs>
</svg>
